<svg width="1440" height="1033" viewBox="0 0 1440 1033" fill="none" xmlns="http://www.w3.org/2000/svg">
<rect x="-5" y="5" width="1446" height="1023" fill="url(#paint0_linear_231_7)"/>
<g clip-path="url(#clip0_231_7)">
<path d="M877.509 220.521C882.413 224.98 894.506 229.048 906.321 226.986C918.135 224.924 926.662 217.902 925.324 211.772C923.987 205.586 911.336 201.852 908.438 195.778C905.54 189.703 906.042 179.003 899.243 173.932C892.388 168.86 877.843 185.691 873.998 195.499C870.153 205.307 869.707 213.444 877.509 220.521Z" fill="white" fill-opacity="0.4"/>
<path d="M846.579 190.706C846.078 195.109 850.815 198.898 857.112 199.233C863.354 199.511 868.815 196.223 869.317 191.821C869.819 187.418 865.137 183.573 858.84 183.238C852.542 182.904 847.081 186.303 846.579 190.706Z" fill="white" fill-opacity="0.4"/>
<path d="M877.843 228.992C873.441 225.314 865.471 227.432 860.232 233.952C854.938 240.417 854.158 248.553 858.561 252.12C862.963 255.686 870.765 253.402 876.004 247.048C881.187 240.528 882.19 232.67 877.843 228.992Z" fill="white" fill-opacity="0.4"/>
<path d="M886.76 242.423C884.81 248.274 886.927 254.182 891.051 255.296C895.175 256.355 900.191 252.621 902.086 246.714C903.98 240.807 902.086 235.067 897.906 233.897C893.67 232.671 888.655 236.516 886.76 242.423Z" fill="white" fill-opacity="0.4"/>
<path d="M848.864 207.983C841.173 211.159 836.492 218.181 838.443 223.531C840.393 228.936 848.195 230.72 855.83 227.543C863.409 224.311 868.202 217.624 866.363 212.274C864.58 206.924 856.666 204.918 848.864 207.983Z" fill="white" fill-opacity="0.4"/>
<path d="M535.033 499.295C528.401 499.183 516.642 504.032 509.063 513.338C501.484 522.645 499.701 533.568 504.716 537.302C509.732 541.092 521.769 535.574 527.955 538.249C534.141 540.924 540.773 549.339 549.244 548.671C557.715 548.002 557.659 525.766 554.092 515.846C550.581 505.926 545.566 499.517 535.033 499.295Z" fill="white" fill-opacity="0.4"/>
<path d="M577.945 501.468C575.381 497.846 569.362 498.069 564.402 501.97C559.442 505.87 557.547 511.945 560.111 515.567C562.674 519.189 568.693 519.022 573.598 515.121C578.558 511.22 580.508 505.09 577.945 501.468Z" fill="white" fill-opacity="0.4"/>
<path d="M529.237 493.109C534.978 492.997 539.547 486.142 539.269 477.783C539.046 469.424 534.253 462.792 528.569 463.015C522.884 463.182 518.537 470.037 518.76 478.34C519.095 486.644 523.497 493.22 529.237 493.109Z" fill="white" fill-opacity="0.4"/>
<path d="M513.634 488.873C511.237 483.189 505.776 480.124 501.93 482.019C498.141 483.913 496.803 490.044 499.255 495.728C501.707 501.412 506.89 504.533 510.847 502.639C514.86 500.744 516.086 494.558 513.634 488.873Z" fill="white" fill-opacity="0.4"/>
<path d="M564.848 489.932C568.527 482.464 567.468 474.161 562.452 471.374C557.436 468.588 550.359 472.377 546.681 479.789C543.114 487.201 543.838 495.393 548.798 498.236C553.702 501.022 561.003 497.344 564.848 489.932Z" fill="white" fill-opacity="0.4"/>
<path d="M23.8291 968.311C29.2348 964.41 35.6437 953.432 36.0895 941.45C36.5354 929.468 31.4083 919.66 25.1109 919.716C18.8135 919.716 12.5161 931.363 5.94006 932.979C-0.635979 934.539 -10.9459 931.865 -17.3547 937.493C-23.7078 943.122 -10.2214 960.843 -1.41618 966.639C7.44475 972.379 15.3026 974.497 23.8291 968.311Z" fill="white" fill-opacity="0.4"/>
<path d="M-11.7256 992.441C-7.49019 993.834 -2.80894 989.989 -1.24852 983.915C0.31189 977.84 -1.80582 971.822 -5.9855 970.484C-10.2209 969.091 -14.9022 972.881 -16.5183 978.955C-18.0787 984.974 -15.9053 991.048 -11.7256 992.441Z" fill="white" fill-opacity="0.4"/>
<path d="M32.1885 969.705C27.6744 973.216 28.1203 981.463 33.4145 987.983C38.6531 994.504 46.4552 996.9 50.8578 993.333C55.2604 989.767 54.6473 981.686 49.4645 975.222C44.226 968.813 36.7026 966.194 32.1885 969.705Z" fill="white" fill-opacity="0.4"/>
<path d="M47.1797 963.741C52.5297 966.862 58.7157 966.026 60.6105 962.181C62.5053 958.336 59.886 952.707 54.4803 949.642C49.1303 946.577 43.1115 947.246 41.0495 951.091C39.099 954.992 41.8297 960.676 47.1797 963.741Z" fill="white" fill-opacity="0.4"/>
<path d="M5.66113 993.779C7.22155 1001.97 13.0731 1007.94 18.7575 1007.15C24.4418 1006.37 27.7856 999.074 26.2809 990.937C24.6647 982.856 19.0918 976.782 13.5189 977.45C7.89029 978.175 4.32364 985.476 5.66113 993.779Z" fill="white" fill-opacity="0.4"/>
<path d="M21.5441 257.151C14.9123 257.875 3.93366 264.284 -2.36374 274.483C-8.66114 284.737 -8.99551 295.771 -3.47832 298.836C2.03887 301.901 13.2404 294.88 19.705 296.719C26.1696 298.558 33.8602 306.025 42.2196 304.242C50.5233 302.459 47.5139 280.39 42.6655 271.027C37.817 261.665 31.9655 255.981 21.5441 257.151Z" fill="white" fill-opacity="0.4"/>
<path d="M64.3439 253.64C61.3346 250.352 55.3716 251.411 51.0247 255.925C46.6779 260.439 45.5633 266.681 48.5169 269.969C51.5263 273.257 57.4893 272.254 61.8361 267.74C66.183 263.226 67.2975 256.928 64.3439 253.64Z" fill="white" fill-opacity="0.4"/>
<path d="M14.9124 251.801C20.5968 250.965 24.2192 243.553 22.8259 235.305C21.4884 227.057 15.8598 221.15 10.2869 222.042C4.71397 222.989 1.25876 230.345 2.59626 238.537C4.04522 246.73 9.28376 252.693 14.9124 251.801Z" fill="white" fill-opacity="0.4"/>
<path d="M-1.08218 249.628C-4.20302 244.277 -9.99885 241.937 -13.5655 244.389C-17.0764 246.785 -17.6337 253.027 -14.4014 258.321C-11.2249 263.616 -5.65197 266.012 -1.97385 263.671C1.70428 261.275 2.09438 254.978 -1.08218 249.628Z" fill="white" fill-opacity="0.4"/>
<path d="M49.8546 243.943C52.5296 236.085 50.3562 227.949 45.0619 225.831C39.7119 223.713 33.2473 228.395 30.5724 236.252C28.0088 244.055 29.8479 252.135 35.0864 254.253C40.2692 256.426 46.9567 251.801 49.8546 243.943Z" fill="white" fill-opacity="0.4"/>
<path d="M114.159 102.422C114.66 95.7903 110.481 83.8086 101.564 75.7278C92.7029 67.6471 81.8915 65.2508 77.879 70.0435C73.8107 74.8919 78.6592 87.2081 75.5941 93.2268C72.5847 99.2455 63.8352 105.376 64.0024 113.902C64.1696 122.429 86.4055 123.543 96.4925 120.59C106.635 117.58 113.323 112.899 114.159 102.422Z" fill="white" fill-opacity="0.4"/>
<path d="M109.589 145.113C113.379 142.772 113.49 136.698 109.868 131.571C106.245 126.444 100.282 124.159 96.5485 126.499C92.7589 128.84 92.5917 134.859 96.2141 139.986C99.7808 145.169 105.799 147.454 109.589 145.113Z" fill="white" fill-opacity="0.4"/>
<path d="M120.623 96.9073C120.4 102.647 126.976 107.607 135.335 107.774C143.695 107.997 150.55 103.595 150.717 97.9662C150.828 92.2818 144.252 87.5449 135.948 87.322C127.645 87.1548 120.846 91.223 120.623 96.9073Z" fill="white" fill-opacity="0.4"/>
<path d="M125.75 81.6377C131.546 79.5757 134.945 74.2813 133.273 70.3802C131.601 66.4792 125.583 64.8073 119.731 66.925C113.936 69.0428 110.536 74.0584 112.152 78.1267C113.824 82.1392 119.899 83.7554 125.75 81.6377Z" fill="white" fill-opacity="0.4"/>
<path d="M121.849 132.685C129.094 136.809 137.453 136.196 140.519 131.348C143.584 126.499 140.184 119.255 132.995 115.131C125.806 111.118 117.558 111.452 114.437 116.189C111.372 120.926 114.605 128.394 121.849 132.685Z" fill="white" fill-opacity="0.4"/>
<path d="M1397.16 367.328C1392.98 362.145 1381.73 356.294 1369.69 356.461C1357.65 356.628 1348.18 362.257 1348.51 368.554C1348.85 374.852 1360.77 380.536 1362.72 387C1364.62 393.465 1362.44 403.942 1368.41 410.017C1374.37 416.091 1391.37 401.713 1396.66 392.629C1402.07 383.545 1403.74 375.576 1397.16 367.328Z" fill="white" fill-opacity="0.4"/>
<path d="M1423.02 401.602C1424.19 397.31 1420.12 392.852 1413.99 391.57C1407.86 390.288 1401.96 392.741 1400.78 396.976C1399.61 401.267 1403.63 405.781 1409.76 407.063C1415.94 408.345 1421.85 405.893 1423.02 401.602Z" fill="white" fill-opacity="0.4"/>
<path d="M1398.11 358.913C1401.84 363.26 1410.09 362.368 1416.28 356.74C1422.52 351.167 1424.53 343.309 1420.74 339.073C1416.95 334.838 1408.92 335.897 1402.68 341.414C1396.61 346.987 1394.38 354.622 1398.11 358.913Z" fill="white" fill-opacity="0.4"/>
<path d="M1391.37 344.256C1394.21 338.739 1393.04 332.609 1389.14 330.881C1385.24 329.209 1379.66 332.052 1376.93 337.625C1374.15 343.142 1375.09 349.105 1379.11 350.944C1383.06 352.783 1388.58 349.774 1391.37 344.256Z" fill="white" fill-opacity="0.4"/>
<path d="M1423.47 384.158C1431.55 382.208 1437.23 376.022 1436.17 370.393C1435.06 364.765 1427.65 361.811 1419.62 363.706C1411.65 365.712 1405.86 371.563 1406.8 377.136C1407.81 382.765 1415.28 385.997 1423.47 384.158Z" fill="white" fill-opacity="0.4"/>
<path d="M47.848 726.057C43.5012 721.041 31.9652 715.58 19.9834 716.249C8.00167 716.862 -1.30509 722.88 -0.692073 729.122C-0.134781 735.419 12.0142 740.658 14.1876 747.011C16.3611 753.42 14.5777 763.953 20.7637 769.804C26.9496 775.656 43.3897 760.665 48.3496 751.358C53.3652 742.051 54.7585 734.026 47.848 726.057Z" fill="white" fill-opacity="0.4"/>
<path d="M75.0439 759.327C76.047 754.98 71.8116 750.689 65.6257 749.63C59.4398 748.571 53.6439 751.246 52.6408 755.538C51.6377 759.885 55.8174 764.232 62.0033 765.29C68.1892 766.294 74.0408 763.618 75.0439 759.327Z" fill="white" fill-opacity="0.4"/>
<path d="M48.5168 717.586C52.4179 721.766 60.6101 720.595 66.5731 714.744C72.5919 708.948 74.3195 700.979 70.3627 696.91C66.4059 692.842 58.3809 694.18 52.4178 699.92C46.5105 705.716 44.6157 713.462 48.5168 717.586Z" fill="white" fill-opacity="0.4"/>
<path d="M41.2158 703.208C43.8351 697.635 42.4419 691.505 38.4851 689.945C34.5283 688.384 29.0669 691.505 26.5591 697.134C23.9956 702.762 25.1659 708.67 29.2341 710.397C33.1908 712.069 38.5966 708.837 41.2158 703.208Z" fill="white" fill-opacity="0.4"/>
<path d="M74.8208 741.884C82.8458 739.599 88.3073 733.246 86.9698 727.673C85.688 722.1 78.1088 719.425 70.1396 721.654C62.2261 723.995 56.6532 730.07 57.8792 735.587C59.1052 741.048 66.6844 744.002 74.8208 741.884Z" fill="white" fill-opacity="0.4"/>
<path d="M829.282 455.324C826.718 461.454 826.997 474.161 832.848 484.638C838.756 495.115 848.23 500.743 853.58 497.4C858.93 494.112 858.205 480.904 862.998 476.111C867.735 471.318 877.989 468.253 880.441 460.061C882.893 451.925 862.162 443.9 851.629 443.565C841.152 443.287 833.294 445.571 829.282 455.324Z" fill="white" fill-opacity="0.4"/>
<path d="M846.948 416.202C842.657 417.261 840.65 422.945 842.489 428.964C844.328 434.983 849.288 438.995 853.58 437.937C857.871 436.878 859.933 431.193 858.094 425.23C856.255 419.211 851.295 415.143 846.948 416.202Z" fill="white" fill-opacity="0.4"/>
<path d="M821.424 458.501C823.43 453.151 818.749 446.352 810.836 443.565C802.978 440.723 795.064 442.785 793.17 448.079C791.275 453.429 796.067 460.005 803.869 462.792C811.671 465.578 819.418 463.851 821.424 458.501Z" fill="white" fill-opacity="0.4"/>
<path d="M811.783 471.43C805.598 471.597 800.749 475.554 801.139 479.789C801.529 484.025 806.712 487.536 812.898 487.257C819.084 487.034 823.877 483.356 823.598 479.009C823.264 474.662 817.969 471.262 811.783 471.43Z" fill="white" fill-opacity="0.4"/>
<path d="M831.456 424.172C825.883 417.986 817.746 415.979 813.288 419.602C808.885 423.28 809.833 431.193 815.35 437.324C820.923 443.342 828.836 445.683 833.295 442.116C837.697 438.55 836.917 430.469 831.456 424.172Z" fill="white" fill-opacity="0.4"/>
<path d="M914.326 717.697C915.329 724.273 922.184 734.973 932.717 740.825C943.194 746.676 954.228 746.509 957.071 740.881C959.913 735.252 952.389 724.385 953.95 717.809C955.51 711.233 962.588 703.263 960.47 695.015C958.352 686.768 936.451 690.724 927.311 695.963C918.116 701.201 912.71 707.276 914.326 717.697Z" fill="white" fill-opacity="0.4"/>
<path d="M908.976 675.065C905.856 678.185 907.137 684.093 911.818 688.272C916.5 692.452 922.797 693.288 925.974 690.167C929.094 687.046 927.868 681.083 923.187 676.959C918.506 672.78 912.097 671.944 908.976 675.065Z" fill="white" fill-opacity="0.4"/>
<path d="M909.255 724.497C908.14 718.868 900.617 715.524 892.424 717.308C884.232 718.979 878.548 724.887 879.718 730.404C880.888 735.921 888.412 739.097 896.493 737.37C904.629 735.586 910.369 730.069 909.255 724.497Z" fill="white" fill-opacity="0.4"/>
<path d="M907.805 740.547C902.622 743.89 900.56 749.797 903.068 753.252C905.632 756.652 911.873 756.93 917.001 753.475C922.183 750.076 924.301 744.448 921.793 740.825C919.285 737.314 912.988 737.147 907.805 740.547Z" fill="white" fill-opacity="0.4"/>
<path d="M899.892 689.944C891.923 687.603 883.898 690.111 882.003 695.517C880.164 700.923 885.124 707.22 893.038 709.561C900.951 711.79 908.921 709.617 910.816 704.267C912.766 698.972 907.862 692.452 899.892 689.944Z" fill="white" fill-opacity="0.4"/>
<path d="M55.0374 506.595C61.6134 507.654 73.9296 504.422 82.6791 496.285C91.4843 488.093 94.7723 477.56 90.2582 473.158C85.7999 468.699 73.0936 472.489 67.3535 468.978C61.6134 465.467 56.2077 456.272 47.6811 455.714C39.1545 455.213 36.2009 477.282 38.3743 487.592C40.5478 497.846 44.616 504.924 55.0374 506.595Z" fill="white" fill-opacity="0.4"/>
<path d="M12.8507 498.514C14.857 502.471 20.8757 503.084 26.2815 499.907C31.6872 496.731 34.4179 490.991 32.4117 487.034C30.4054 483.077 24.3867 482.409 18.9809 485.585C13.5752 488.762 10.8445 494.557 12.8507 498.514Z" fill="white" fill-opacity="0.4"/>
<path d="M59.9419 513.506C54.2575 512.837 48.7403 518.967 47.9044 527.271C47.0127 535.575 50.8023 542.764 56.4309 543.377C62.0596 543.99 67.3539 537.804 68.2455 529.556C69.0815 521.308 65.6263 514.175 59.9419 513.506Z" fill="white" fill-opacity="0.4"/>
<path d="M74.7662 519.859C76.3266 525.822 81.3423 529.612 85.4105 528.274C89.4787 526.881 91.5964 521.029 89.9245 515.066C88.3084 509.103 83.5714 505.314 79.3917 506.595C75.2121 507.933 73.1501 513.84 74.7662 519.859Z" fill="white" fill-opacity="0.4"/>
<path d="M24.2194 511.723C19.5382 518.577 19.4267 526.993 23.9965 530.448C28.5663 533.903 36.0898 531.117 40.771 524.318C45.3408 517.463 45.731 509.215 41.2169 505.76C36.7585 502.304 29.0679 504.924 24.2194 511.723Z" fill="white" fill-opacity="0.4"/>
<path d="M1135.01 520.194C1128.94 517.463 1116.23 517.296 1105.59 522.924C1094.94 528.497 1089.04 537.804 1092.21 543.265C1095.39 548.727 1108.6 548.392 1113.22 553.296C1117.85 558.201 1120.64 568.51 1128.72 571.241C1136.8 573.972 1145.43 553.464 1146.05 542.931C1146.72 532.454 1144.6 524.541 1135.01 520.194Z" fill="white" fill-opacity="0.4"/>
<path d="M1173.58 539.085C1172.69 534.739 1167 532.565 1160.98 534.237C1154.91 535.909 1150.78 540.702 1151.68 545.049C1152.57 549.395 1158.2 551.625 1164.27 549.953C1170.29 548.281 1174.47 543.432 1173.58 539.085Z" fill="white" fill-opacity="0.4"/>
<path d="M1132.06 512.28C1137.35 514.453 1144.32 509.939 1147.27 502.137C1150.34 494.335 1148.55 486.421 1143.26 484.359C1137.97 482.297 1131.28 486.867 1128.21 494.614C1125.26 502.304 1126.77 510.106 1132.06 512.28Z" fill="white" fill-opacity="0.4"/>
<path d="M1119.41 502.248C1119.46 496.062 1115.62 491.103 1111.38 491.325C1107.15 491.604 1103.47 496.676 1103.53 502.862C1103.53 509.048 1107.09 513.952 1111.5 513.785C1115.84 513.617 1119.41 508.434 1119.41 502.248Z" fill="white" fill-opacity="0.4"/>
<path d="M1166.11 523.314C1172.41 517.908 1174.75 509.828 1171.24 505.314C1167.73 500.8 1159.76 501.468 1153.46 506.874C1147.27 512.28 1144.71 520.137 1148.11 524.651C1151.51 529.165 1159.59 528.608 1166.11 523.314Z" fill="white" fill-opacity="0.4"/>
<path d="M308.828 357.965C302.698 360.529 293.893 369.724 290.716 381.316C287.54 392.907 290.271 403.607 296.401 405.001C302.531 406.45 311.336 396.53 318.079 396.53C324.823 396.474 334.241 401.49 341.764 397.477C349.288 393.465 340.204 373.124 332.959 365.489C325.714 357.742 318.525 353.897 308.828 357.965Z" fill="white" fill-opacity="0.4"/>
<path d="M348.954 342.64C345.164 340.355 339.703 342.974 336.805 348.547C333.851 354.12 334.52 360.417 338.309 362.758C342.099 365.043 347.56 362.479 350.514 356.906C353.468 351.389 352.743 344.98 348.954 342.64Z" fill="white" fill-opacity="0.4"/>
<path d="M301.026 354.677C306.209 352.281 307.714 344.144 304.035 336.621C300.469 329.042 293.391 324.918 288.32 327.37C283.193 329.822 281.967 337.847 285.533 345.315C289.1 352.783 295.843 357.074 301.026 354.677Z" fill="white" fill-opacity="0.4"/>
<path d="M285.032 357.018C280.573 352.782 274.332 352.169 271.601 355.457C268.87 358.745 270.096 364.876 274.666 369.055C279.18 373.29 285.199 374.015 288.041 370.727C290.939 367.383 289.546 361.253 285.032 357.018Z" fill="white" fill-opacity="0.4"/>
<path d="M332.346 337.346C332.736 329.042 328.389 321.853 322.704 321.296C317.02 320.794 312.06 327.091 311.67 335.339C311.391 343.587 315.404 350.776 321.032 351.389C326.605 352.002 331.788 345.705 332.346 337.346Z" fill="white" fill-opacity="0.4"/>
<path d="M795.4 952.206C795.4 945.574 790.329 933.927 780.855 926.515C771.381 919.102 760.458 917.542 756.78 922.613C753.101 927.741 758.842 939.667 756.222 945.909C753.659 952.15 745.411 958.95 746.247 967.421C747.083 975.892 769.319 975.39 779.183 971.656C789.047 967.866 795.4 962.739 795.4 952.206Z" fill="white" fill-opacity="0.4"/>
<path d="M794.063 995.118C797.63 992.498 797.295 986.479 793.338 981.631C789.382 976.782 783.251 974.943 779.685 977.562C776.118 980.182 776.397 986.201 780.353 991.049C784.31 995.898 790.44 997.737 794.063 995.118Z" fill="white" fill-opacity="0.4"/>
<path d="M801.474 946.243C801.697 951.983 808.608 956.441 816.967 955.94C825.327 955.55 831.847 950.646 831.568 944.961C831.29 939.333 824.379 935.042 816.075 935.432C807.772 935.989 801.251 940.559 801.474 946.243Z" fill="white" fill-opacity="0.4"/>
<path d="M805.431 930.638C811.06 928.131 814.069 922.614 812.063 918.824C810.056 915.035 803.982 913.808 798.298 916.428C792.669 918.991 789.66 924.23 791.61 928.13C793.561 932.031 799.747 933.146 805.431 930.638Z" fill="white" fill-opacity="0.4"/>
<path d="M805.32 981.854C812.843 985.42 821.147 984.194 823.822 979.123C826.497 974.052 822.596 967.086 815.128 963.519C807.66 960.064 799.468 961.012 796.737 965.971C794.007 970.931 797.852 978.12 805.32 981.854Z" fill="white" fill-opacity="0.4"/>
<path d="M317.186 665.869C313.063 671.052 309.775 683.368 312.561 695.015C315.347 706.718 322.927 714.743 329.001 713.016C335.076 711.288 338.029 698.415 343.881 695.127C349.788 691.839 360.432 691.671 365.058 684.538C369.683 677.405 351.961 663.974 341.93 660.742C331.899 657.509 323.763 657.621 317.186 665.869Z" fill="white" fill-opacity="0.4"/>
<path d="M344.94 633.1C340.482 632.933 337.027 637.837 337.138 644.135C337.25 650.432 340.872 655.615 345.33 655.838C349.789 656.005 353.299 651.101 353.188 644.859C353.076 638.562 349.398 633.267 344.94 633.1Z" fill="white" fill-opacity="0.4"/>
<path d="M308.772 666.761C312.171 662.135 309.552 654.333 302.697 649.485C295.899 644.581 287.762 644.358 284.474 648.983C281.186 653.609 283.973 661.244 290.66 666.092C297.459 670.885 305.372 671.33 308.772 666.761Z" fill="white" fill-opacity="0.4"/>
<path d="M295.899 676.514C289.936 674.953 284.14 677.406 283.36 681.641C282.579 685.821 286.592 690.613 292.611 692.062C298.629 693.567 304.258 691.338 305.15 687.047C306.097 682.811 301.917 678.074 295.899 676.514Z" fill="white" fill-opacity="0.4"/>
<path d="M327.831 636.5C324.153 629.032 316.909 624.852 311.614 627.137C306.376 629.422 305.094 637.336 308.716 644.748C312.45 652.104 319.416 656.451 324.655 654.278C329.893 652.048 331.398 644.079 327.831 636.5Z" fill="white" fill-opacity="0.4"/>
<path d="M513.131 951.091C519.762 951.147 531.465 946.187 538.989 936.769C546.457 927.351 548.184 916.483 543.113 912.75C538.041 909.016 526.06 914.644 519.818 912.025C513.632 909.406 506.889 901.102 498.418 901.826C489.947 902.551 490.226 924.843 493.904 934.707C497.526 944.571 502.598 950.98 513.131 951.091Z" fill="white" fill-opacity="0.4"/>
<path d="M470.219 949.307C472.783 952.93 478.857 952.651 483.706 948.694C488.61 944.738 490.449 938.663 487.886 935.041C485.322 931.419 479.247 931.641 474.399 935.598C469.495 939.555 467.656 945.685 470.219 949.307Z" fill="white" fill-opacity="0.4"/>
<path d="M518.982 957.165C513.242 957.332 508.728 964.187 509.118 972.602C509.453 980.961 514.301 987.537 519.93 987.314C525.614 987.091 529.905 980.181 529.571 971.933C529.181 963.574 524.722 957.054 518.982 957.165Z" fill="white" fill-opacity="0.4"/>
<path d="M534.587 961.29C537.039 966.974 542.5 969.983 546.346 968.033C550.135 966.082 551.417 959.952 548.909 954.323C546.401 948.695 541.219 945.574 537.262 947.524C533.305 949.419 532.135 955.605 534.587 961.29Z" fill="white" fill-opacity="0.4"/>
<path d="M483.371 960.732C479.749 968.2 480.864 976.559 485.935 979.29C490.951 982.021 497.973 978.175 501.595 970.763C505.106 963.296 504.27 955.103 499.31 952.317C494.406 949.53 487.217 953.264 483.371 960.732Z" fill="white" fill-opacity="0.4"/>
<path d="M1067.25 970.373C1069.36 976.67 1078 986.032 1089.32 989.989C1100.68 993.946 1111.5 991.884 1113.33 985.865C1115.17 979.847 1105.92 970.372 1106.31 963.685C1106.7 956.942 1112.33 947.858 1108.82 940.111C1105.31 932.365 1084.41 940.056 1076.27 946.743C1068.19 953.486 1063.85 960.397 1067.25 970.373Z" fill="white" fill-opacity="0.4"/>
<path d="M1054.65 929.3C1052.09 932.923 1054.37 938.551 1059.72 941.839C1065.07 945.127 1071.43 944.904 1073.99 941.282C1076.55 937.66 1074.32 932.031 1068.97 928.743C1063.68 925.399 1057.22 925.678 1054.65 929.3Z" fill="white" fill-opacity="0.4"/>
<path d="M1063.46 977.952C1061.39 972.602 1053.37 970.596 1045.62 973.772C1037.88 976.837 1033.25 983.581 1035.37 988.875C1037.49 994.113 1045.4 995.953 1053.09 992.887C1060.84 989.711 1065.52 983.246 1063.46 977.952Z" fill="white" fill-opacity="0.4"/>
<path d="M1064.8 994.002C1060.28 998.182 1059.22 1004.37 1062.34 1007.32C1065.46 1010.27 1071.65 1009.44 1076.11 1005.15C1080.62 1000.91 1081.79 994.95 1078.67 991.885C1075.49 988.819 1069.31 989.767 1064.8 994.002Z" fill="white" fill-opacity="0.4"/>
<path d="M1048.3 945.518C1040.05 944.57 1032.58 948.415 1031.64 954.1C1030.74 959.784 1036.71 965.078 1044.9 966.026C1053.09 966.862 1060.56 963.351 1061.51 957.778C1062.51 952.205 1056.6 946.632 1048.3 945.518Z" fill="white" fill-opacity="0.4"/>
<path d="M1128.33 289.697C1125.37 283.734 1115.67 275.542 1103.92 273.09C1092.16 270.638 1081.68 274.093 1080.62 280.279C1079.56 286.465 1089.98 294.657 1090.49 301.4C1090.93 308.143 1086.53 317.84 1091.04 325.085C1095.56 332.33 1115.23 322.02 1122.42 314.274C1129.55 306.527 1132.95 299.115 1128.33 289.697Z" fill="white" fill-opacity="0.4"/>
<path d="M1146.1 328.763C1148.17 324.862 1145.16 319.568 1139.47 317.004C1133.73 314.441 1127.49 315.5 1125.43 319.456C1123.37 323.357 1126.32 328.652 1132 331.271C1137.69 333.779 1144.04 332.664 1146.1 328.763Z" fill="white" fill-opacity="0.4"/>
<path d="M1131.11 281.672C1133.84 286.688 1142.04 287.635 1149.34 283.511C1156.64 279.443 1160.31 272.142 1157.53 267.238C1154.74 262.278 1146.66 261.554 1139.42 265.566C1132.17 269.69 1128.38 276.656 1131.11 281.672Z" fill="white" fill-opacity="0.4"/>
<path d="M1127.71 265.901C1131.67 261.164 1131.89 254.922 1128.44 252.359C1124.98 249.851 1118.96 251.467 1115.06 256.26C1111.16 261.052 1110.77 267.071 1114.28 269.746C1117.74 272.421 1123.76 270.694 1127.71 265.901Z" fill="white" fill-opacity="0.4"/>
<path d="M1150.34 311.822C1158.64 311.654 1165.55 306.917 1165.72 301.177C1165.89 295.437 1159.25 290.923 1151.01 291.035C1142.76 291.257 1135.85 295.716 1135.57 301.4C1135.35 307.029 1141.98 311.822 1150.34 311.822Z" fill="white" fill-opacity="0.4"/>
<path d="M268.257 937.884C267.756 931.252 261.737 920.051 251.706 913.419C241.674 906.787 230.64 906.119 227.408 911.524C224.176 916.93 230.807 928.354 228.745 934.763C226.683 941.172 218.993 948.584 220.497 956.999C222.002 965.358 244.127 963.073 253.656 958.559C263.186 953.989 269.093 948.361 268.257 937.884Z" fill="white" fill-opacity="0.4"/>
<path d="M270.32 980.794C273.663 977.896 272.827 971.933 268.481 967.419C264.134 962.905 257.892 961.568 254.492 964.466C251.149 967.363 251.873 973.327 256.276 977.841C260.678 982.355 266.976 983.636 270.32 980.794Z" fill="white" fill-opacity="0.4"/>
<path d="M273.775 931.474C274.443 937.158 281.744 941.059 289.992 939.889C298.295 938.83 304.37 933.424 303.645 927.796C302.921 922.167 295.676 918.489 287.428 919.548C279.236 920.718 273.106 925.79 273.775 931.474Z" fill="white" fill-opacity="0.4"/>
<path d="M276.449 915.535C281.855 912.582 284.419 906.842 282.134 903.219C279.849 899.597 273.663 898.872 268.257 901.938C262.851 904.947 260.288 910.408 262.517 914.142C264.802 917.932 271.044 918.545 276.449 915.535Z" fill="white" fill-opacity="0.4"/>
<path d="M280.518 966.639C288.32 969.593 296.512 967.698 298.741 962.404C301.026 957.165 296.512 950.477 288.821 947.58C281.075 944.737 272.994 946.353 270.654 951.481C268.369 956.608 272.716 963.463 280.518 966.639Z" fill="white" fill-opacity="0.4"/>
<path d="M442.229 150.019C442.118 156.651 447.078 168.41 456.44 175.933C465.803 183.457 476.726 185.184 480.46 180.113C484.193 175.042 478.676 163.06 481.296 156.818C483.97 150.632 492.274 143.944 491.605 135.474C490.881 127.003 468.645 127.226 458.725 130.792C448.75 134.47 442.397 139.486 442.229 150.019Z" fill="white" fill-opacity="0.4"/>
<path d="M444.18 107.107C440.558 109.671 440.837 115.69 444.738 120.594C448.639 125.498 454.713 127.393 458.335 124.83C461.958 122.266 461.735 116.247 457.834 111.343C453.933 106.494 447.803 104.6 444.18 107.107Z" fill="white" fill-opacity="0.4"/>
<path d="M436.099 155.926C435.988 150.186 429.077 145.616 420.718 146.007C412.359 146.285 405.783 151.134 406.006 156.762C406.228 162.446 413.083 166.793 421.387 166.459C429.635 166.069 436.211 161.61 436.099 155.926Z" fill="white" fill-opacity="0.4"/>
<path d="M431.92 171.475C426.236 173.927 423.171 179.388 425.121 183.178C427.072 186.968 433.146 188.305 438.83 185.797C444.515 183.345 447.58 178.107 445.685 174.15C443.79 170.249 437.604 169.023 431.92 171.475Z" fill="white" fill-opacity="0.4"/>
<path d="M432.7 120.26C425.232 116.582 416.873 117.696 414.142 122.768C411.412 127.783 415.201 134.861 422.613 138.483C430.025 142.05 438.273 141.214 441.059 136.31C443.846 131.35 440.168 124.105 432.7 120.26Z" fill="white" fill-opacity="0.4"/>
<path d="M1199.55 771.364C1204.06 766.46 1208.13 754.423 1206.12 742.553C1204.12 730.683 1197.09 722.156 1190.96 723.494C1184.78 724.776 1180.99 737.482 1174.91 740.324C1168.84 743.222 1158.14 742.664 1153.07 749.463C1148 756.262 1164.77 770.863 1174.58 774.764C1184.28 778.665 1192.41 779.166 1199.55 771.364Z" fill="white" fill-opacity="0.4"/>
<path d="M1169.62 802.183C1174.02 802.684 1177.87 797.947 1178.15 791.706C1178.48 785.464 1175.19 780.002 1170.79 779.501C1166.39 778.999 1162.54 783.681 1162.21 789.922C1161.87 796.22 1165.22 801.681 1169.62 802.183Z" fill="white" fill-opacity="0.4"/>
<path d="M1208.02 771.03C1204.34 775.377 1206.4 783.402 1212.92 788.64C1219.33 793.99 1227.47 794.715 1231.09 790.368C1234.71 785.965 1232.43 778.163 1226.02 772.925C1219.55 767.686 1211.7 766.683 1208.02 771.03Z" fill="white" fill-opacity="0.4"/>
<path d="M1221.45 762.169C1227.3 764.119 1233.21 762.057 1234.32 757.933C1235.38 753.809 1231.7 748.794 1225.8 746.899C1219.89 745.004 1214.15 746.843 1212.92 751.079C1211.75 755.203 1215.6 760.218 1221.45 762.169Z" fill="white" fill-opacity="0.4"/>
<path d="M1186.9 799.953C1190.07 807.644 1197.04 812.325 1202.45 810.375C1207.85 808.424 1209.63 800.622 1206.51 792.987C1203.28 785.408 1196.65 780.559 1191.24 782.399C1185.89 784.238 1183.89 792.151 1186.9 799.953Z" fill="white" fill-opacity="0.4"/>
<path d="M607.759 283.511C613.89 286.075 626.596 285.796 637.073 279.889C647.55 273.981 653.178 264.507 649.835 259.157C646.547 253.807 633.283 254.532 628.546 249.739C623.754 245.002 620.633 234.748 612.496 232.296C604.36 229.844 596.335 250.575 596 261.108C595.722 271.641 598.007 279.499 607.759 283.511Z" fill="white" fill-opacity="0.4"/>
<path d="M568.637 265.845C569.696 270.136 575.381 272.142 581.399 270.303C587.418 268.464 591.43 263.504 590.372 259.213C589.313 254.922 583.628 252.86 577.665 254.699C571.647 256.538 567.579 261.554 568.637 265.845Z" fill="white" fill-opacity="0.4"/>
<path d="M610.936 291.369C605.586 289.363 598.787 294.044 596 301.957C593.158 309.815 595.22 317.729 600.57 319.624C605.92 321.519 612.496 316.726 615.283 308.924C618.013 301.122 616.286 293.375 610.936 291.369Z" fill="white" fill-opacity="0.4"/>
<path d="M623.865 301.01C624.032 307.196 627.989 312.044 632.225 311.654C636.46 311.264 639.971 306.081 639.692 299.895C639.469 293.71 635.791 288.917 631.444 289.196C627.098 289.53 623.698 294.824 623.865 301.01Z" fill="white" fill-opacity="0.4"/>
<path d="M576.606 281.338C570.42 286.91 568.414 295.047 572.036 299.505C575.715 303.908 583.628 302.96 589.759 297.443C595.777 291.87 598.062 283.901 594.551 279.499C590.985 275.096 582.904 275.876 576.606 281.338Z" fill="white" fill-opacity="0.4"/>
<path d="M1300.11 123.232C1293.48 123.177 1281.78 128.137 1274.31 137.555C1266.84 146.973 1265.17 157.84 1270.24 161.574C1275.32 165.308 1287.3 159.679 1293.54 162.299C1299.72 164.918 1306.47 173.222 1314.94 172.497C1323.41 171.717 1323.07 149.481 1319.45 139.617C1315.77 129.697 1310.65 123.344 1300.11 123.232Z" fill="white" fill-opacity="0.4"/>
<path d="M1343.03 124.96C1340.46 121.337 1334.39 121.672 1329.54 125.573C1324.64 129.53 1322.8 135.604 1325.36 139.227C1327.92 142.849 1334 142.626 1338.85 138.669C1343.75 134.713 1345.65 128.527 1343.03 124.96Z" fill="white" fill-opacity="0.4"/>
<path d="M1294.26 117.102C1300 116.935 1304.52 110.025 1304.13 101.665C1303.79 93.3059 1298.94 86.7299 1293.32 87.0086C1287.63 87.2315 1283.34 94.1418 1283.67 102.445C1284.06 110.749 1288.52 117.269 1294.26 117.102Z" fill="white" fill-opacity="0.4"/>
<path d="M1278.6 113.034C1276.15 107.35 1270.69 104.34 1266.84 106.291C1263.05 108.241 1261.77 114.371 1264.34 120C1266.84 125.629 1272.08 128.694 1275.98 126.799C1279.94 124.904 1281.11 118.718 1278.6 113.034Z" fill="white" fill-opacity="0.4"/>
<path d="M1329.87 113.535C1333.5 106.068 1332.33 97.7082 1327.31 94.9775C1322.29 92.2467 1315.27 96.0921 1311.65 103.56C1308.14 111.028 1308.98 119.22 1313.94 122.006C1318.84 124.737 1326.03 121.003 1329.87 113.535Z" fill="white" fill-opacity="0.4"/>
<path d="M1380.89 950.645C1380.11 957.277 1383.9 969.426 1392.42 977.841C1401.01 986.256 1411.65 989.098 1415.89 984.417C1420.12 979.736 1415.78 967.252 1419.06 961.345C1422.3 955.438 1431.27 949.642 1431.43 941.115C1431.55 932.589 1409.42 930.583 1399.22 933.202C1388.91 935.765 1382.06 940.168 1380.89 950.645Z" fill="white" fill-opacity="0.4"/>
<path d="M1387.08 908.123C1383.23 910.297 1382.9 916.371 1386.29 921.61C1389.69 926.905 1395.55 929.357 1399.45 927.183C1403.29 925.01 1403.68 918.935 1400.28 913.696C1396.88 908.458 1390.92 905.95 1387.08 908.123Z" fill="white" fill-opacity="0.4"/>
<path d="M1374.2 955.884C1374.65 950.2 1368.24 944.961 1359.88 944.46C1351.52 943.903 1344.5 948.026 1344.16 953.71C1343.83 959.339 1350.24 964.354 1358.49 964.912C1366.79 965.357 1373.76 961.568 1374.2 955.884Z" fill="white" fill-opacity="0.4"/>
<path d="M1368.46 970.987C1362.55 972.826 1358.99 977.953 1360.55 981.965C1362.11 985.922 1368.02 987.872 1373.92 985.922C1379.83 984.027 1383.4 979.123 1381.89 974.999C1380.44 970.875 1374.37 969.092 1368.46 970.987Z" fill="white" fill-opacity="0.4"/>
<path d="M1374.37 920.106C1367.29 915.703 1358.88 915.982 1355.64 920.719C1352.41 925.456 1355.53 932.813 1362.55 937.215C1369.58 941.506 1377.82 941.506 1381.11 936.881C1384.34 932.2 1381.39 924.676 1374.37 920.106Z" fill="white" fill-opacity="0.4"/>
<path d="M638.632 721.152C642.924 726.223 654.348 731.852 666.33 731.406C678.312 730.96 687.674 725.109 687.228 718.811C686.727 712.514 674.689 707.108 672.627 700.699C670.565 694.29 672.516 683.758 666.386 677.85C660.255 671.887 643.648 686.655 638.521 695.907C633.338 705.046 631.833 713.071 638.632 721.152Z" fill="white" fill-opacity="0.4"/>
<path d="M611.938 687.436C610.88 691.727 615.059 696.13 621.245 697.245C627.431 698.359 633.227 695.796 634.286 691.505C635.345 687.213 631.221 682.755 625.035 681.64C618.905 680.581 612.997 683.145 611.938 687.436Z" fill="white" fill-opacity="0.4"/>
<path d="M637.852 729.568C634.007 725.332 625.815 726.391 619.74 732.131C613.61 737.815 611.827 745.784 615.672 749.908C619.517 754.032 627.598 752.806 633.673 747.178C639.636 741.493 641.698 733.803 637.852 729.568Z" fill="white" fill-opacity="0.4"/>
<path d="M644.93 744.057C642.255 749.63 643.537 755.76 647.494 757.376C651.45 758.992 656.912 755.983 659.531 750.354C662.206 744.781 661.092 738.818 657.079 737.091C653.011 735.363 647.605 738.484 644.93 744.057Z" fill="white" fill-opacity="0.4"/>
<path d="M611.883 704.879C603.858 706.997 598.285 713.294 599.511 718.923C600.737 724.551 608.261 727.338 616.23 725.22C624.143 723.047 629.828 717.028 628.713 711.455C627.599 705.938 620.075 702.928 611.883 704.879Z" fill="white" fill-opacity="0.4"/>
<path d="M1407.53 640.958C1401.34 643.466 1392.48 652.55 1389.19 664.142C1385.9 675.678 1388.52 686.434 1394.65 687.883C1400.78 689.387 1409.7 679.579 1416.39 679.579C1423.13 679.635 1432.55 684.706 1440.07 680.749C1447.6 676.792 1438.74 656.395 1431.6 648.649C1424.47 640.903 1417.34 637.002 1407.53 640.958Z" fill="white" fill-opacity="0.4"/>
<path d="M1447.82 626.023C1444.03 623.683 1438.57 626.302 1435.62 631.819C1432.61 637.336 1433.22 643.689 1437.01 646.029C1440.8 648.37 1446.26 645.806 1449.27 640.289C1452.22 634.772 1451.61 628.364 1447.82 626.023Z" fill="white" fill-opacity="0.4"/>
<path d="M1399.78 637.558C1405.02 635.218 1406.53 627.082 1402.96 619.558C1399.45 611.979 1392.43 607.8 1387.3 610.196C1382.17 612.592 1380.83 620.617 1384.35 628.14C1387.91 635.608 1394.54 639.899 1399.78 637.558Z" fill="white" fill-opacity="0.4"/>
<path d="M1383.79 639.788C1379.33 635.497 1373.14 634.828 1370.36 638.06C1367.63 641.348 1368.8 647.479 1373.31 651.714C1377.77 655.95 1383.79 656.785 1386.68 653.497C1389.58 650.209 1388.25 644.079 1383.79 639.788Z" fill="white" fill-opacity="0.4"/>
<path d="M1431.27 620.561C1431.71 612.258 1427.48 605.013 1421.74 604.456C1416.05 603.899 1411.04 610.14 1410.59 618.388C1410.2 626.636 1414.16 633.88 1419.79 634.493C1425.42 635.162 1430.6 628.921 1431.27 620.561Z" fill="white" fill-opacity="0.4"/>
</g>
<path d="M57 236C27.5805 225.12 -2 181.5 -2 181.5V-5H1442.5V167.5C1442.5 167.5 1421.25 187.596 1405.5 197.5C1390.12 207.172 1380.96 212.481 1363.5 217.5C1334.04 225.97 1313.55 228.67 1285 217.5C1257.7 206.818 1253.61 183.429 1229 167.5C1214.55 158.152 1206.7 142.842 1190 147C1178.32 149.907 1175.72 159.205 1167 167.5C1147.88 185.701 1142.41 201.38 1121.5 217.5C1101.85 232.649 1089.22 240.226 1065.5 247.5C1029.47 258.549 1005.97 254.789 969 247.5C944.767 242.723 928.535 242.613 909 227.5C878.916 204.226 905.041 157.496 873 137C856.004 126.128 842.875 120.531 823 124C797.793 128.399 796.43 155.184 774 167.5C760.778 174.76 752.647 177.894 738 181.5C710.887 188.175 693.333 189.223 666.5 181.5C636.627 172.902 630.931 143.347 600.5 137C584.061 133.571 573.121 125.089 557.5 137L517.5 167.5C501.879 179.411 510.348 201.154 497 217.5C471.448 248.79 438.259 244.153 398 247.5C359.792 250.677 331.979 257.886 300.5 236C278.823 220.929 285.826 188.957 260.5 181.5C248.699 178.025 240.769 177.918 229 181.5C209.979 187.289 209.763 206.808 193 217.5C171.382 231.289 155.352 232.157 130 236C101.814 240.272 83.7385 245.888 57 236Z" fill="#3D3D3D"/>
<path d="M88.5 801.5C49.849 808.125 -0.5 848 -0.5 848V1028.5H1440.5V856C1440.5 856 1409.94 828.998 1386 820.5C1351.77 808.349 1328.12 811.246 1293 820.5C1263.27 828.333 1249.4 840.745 1223 856.5C1207 866.049 1201.62 881.827 1183 882.5C1148.94 883.732 1169.33 829.908 1150.5 801.5L1150.34 801.26C1131.59 772.971 1119.29 754.431 1088.5 740C1058.63 726 1036.58 723.291 1004.5 731C974.574 738.191 958.031 749.571 937.5 772.5C915.875 796.65 917.097 818.809 903 848C893.886 866.872 897.536 886.22 879 896C864.148 903.836 850.852 903.836 836 896C817.464 886.22 822.912 865.893 812 848C800.226 828.695 796.121 814.328 777.5 801.5C750.774 783.089 727.417 793.058 695 791.5C673.546 790.469 660.457 784.954 640 791.5C620.863 797.623 610.626 805.287 597.5 820.5C584.322 835.774 589.88 853.379 575 867C565.907 875.324 559.432 879.399 547.5 882.5C535.783 885.545 527.987 886.322 516.5 882.5C506.376 879.131 501.124 874.943 494 867C476.778 847.798 496.848 824.663 485.5 801.5C475.468 781.023 465.023 771.073 446 758.5C417.341 739.558 394.297 738.025 360 740C332.901 741.56 315.877 743.89 293 758.5C277.405 768.459 266.836 774.737 259 791.5C249.656 811.489 275.955 833.879 259 848C251.782 854.011 245.886 856.128 236.5 856.5C215.645 857.326 214.72 831.527 197 820.5C160.477 797.773 130.898 794.233 88.5 801.5Z" fill="#3D3D3D"/>
<g opacity="0.8" clip-path="url(#clip1_231_7)">
<path d="M68.4011 165.526C66.1394 167.693 62.1997 181.08 62.7888 186.198C73.2245 182.163 79.1945 172.548 79.1945 172.548C73.9136 166.809 68.4011 165.526 68.4011 165.526Z" fill="#D9CCC5"/>
<path d="M165.921 171.543C167.11 174.442 178.124 183.005 183.105 184.33C183.168 173.142 176.409 164.069 176.409 164.069C169.129 166.883 165.921 171.543 165.921 171.543Z" fill="#D9CCC5"/>
<path d="M212.33 106.267C214.981 107.939 228.926 108.518 233.749 106.703C227.305 97.5562 216.533 94.0898 216.533 94.0898C212.236 100.607 212.33 106.267 212.33 106.267Z" fill="#D9CCC5"/>
<path d="M30.8128 96.7724C24.7322 100.854 17 113.394 17 113.394C29.9186 112.626 38.9764 106.819 38.9764 106.819C34.195 95.8414 30.8128 96.7724 30.8128 96.7724Z" fill="#D9CCC5"/>
<path d="M197.092 58.7808C209.653 64.1197 218.463 76.5701 218.463 91.0824C218.463 109.698 203.962 124.92 185.636 126.082C187.429 130.322 188.423 134.982 188.423 139.879C188.423 159.431 172.575 175.279 153.024 175.279C140.799 175.279 130.022 169.083 123.662 159.662C116.824 169.546 105.421 176.021 92.4968 176.021C71.5778 176.021 54.6196 159.063 54.6196 138.144C54.6196 132.358 55.924 126.877 58.2437 121.974C41.6063 120.244 28.6299 106.179 28.6299 89.0783C28.6299 74.9763 37.4614 62.9414 49.8908 58.1864C60.132 49.9597 58.27 45.4677 53.8358 12.9451C46.3666 -41.7746 31.2546 -168.193 28.6299 -245C142.03 -245 197.692 -245 197.692 -245C191.785 -94.9795 170.829 38.6613 172.096 48.5132C173.059 55.8404 183.237 51.8586 197.092 58.7808Z" fill="#CFB897"/>
<path d="M197.092 58.7806C209.653 64.1196 218.463 76.57 218.463 91.0823C218.463 109.697 203.962 124.92 185.636 126.082C187.429 130.322 188.423 134.982 188.423 139.879C188.423 159.431 172.575 175.279 153.024 175.279C140.799 175.279 130.022 169.083 123.662 159.662C116.824 169.546 105.421 176.021 92.4968 176.021C71.5778 176.021 54.6196 159.063 54.6196 138.144C54.6196 132.358 55.924 126.877 58.2437 121.974C41.6063 120.244 28.6299 106.179 28.6299 89.0782C28.6299 74.9762 37.4614 62.9413 49.8908 58.1863C60.132 49.9596 58.27 45.4676 53.8358 12.945C51.7844 -2.1039 49.1491 -22.5811 46.3613 -45.9513C94.4483 -68.6061 152.982 -57.8547 182.659 -49.8121C176.646 5.85448 171.455 43.4582 172.102 48.5131C173.059 55.8403 183.237 51.8585 197.092 58.7806Z" fill="#F4E9E3"/>
<path d="M117.098 109.544C137.575 109.544 155.165 77.7789 147.022 70.1677C134.919 58.8481 130.222 70.9567 118.671 70.9567C107.12 70.9567 98.8301 59.7371 88.4838 68.0689C77.7218 76.7322 97.6729 109.544 117.098 109.544Z" fill="#EBA3A3"/>
<path d="M66.1708 91.9594C66.1708 88.188 63.1147 85.1319 59.3432 85.1319C55.5717 85.1319 52.5156 88.188 52.5156 91.9594C52.5156 95.7308 55.5717 98.7869 59.3432 98.7869C63.1147 98.7817 66.1708 95.7256 66.1708 91.9594Z" fill="#EBA3A3"/>
<path d="M101.975 133.86C101.975 130.089 98.9193 127.033 95.1479 127.033C91.3764 127.033 88.3203 130.089 88.3203 133.86C88.3203 137.632 91.3764 140.688 95.1479 140.688C98.9193 140.688 101.975 137.632 101.975 133.86Z" fill="#EBA3A3"/>
<path d="M158.757 132.577C158.757 128.806 155.701 125.75 151.93 125.75C148.159 125.75 145.103 128.806 145.103 132.577C145.103 136.349 148.159 139.405 151.93 139.405C155.701 139.405 158.757 136.349 158.757 132.577Z" fill="#EBA3A3"/>
<path d="M189.213 87.2675C189.213 83.496 186.157 80.4399 182.385 80.4399C178.614 80.4399 175.558 83.496 175.558 87.2675C175.558 91.0389 178.614 94.095 182.385 94.095C186.157 94.095 189.213 91.0389 189.213 87.2675Z" fill="#EBA3A3"/>
<path d="M115.82 30.3186C109.708 30.3186 103.627 31.2181 98.2407 33.0118C97.0046 33.4221 96.3314 34.7635 96.7469 35.9997C97.1624 37.2358 98.4985 37.9091 99.7346 37.4936C109.445 34.2585 122.153 34.2585 132.12 37.4988C133.357 37.8986 134.693 37.2253 135.098 35.9839C135.503 34.7425 134.824 33.4116 133.583 33.0066C128.065 31.2181 121.927 30.3186 115.82 30.3186Z" fill="#E6DEBE"/>
<path d="M928.982 1182.69C918.362 1169.26 927.267 1159.95 932.064 1133.88C936.861 1107.8 924.526 1102.72 935.146 1080.74C948.538 1053.04 928.981 1039.28 939.259 1022.14C950.49 1003.42 934.462 1007.24 944.057 987.13C953.651 967.016 936.908 960.783 940.632 943.924C944.356 927.066 927.819 916.667 934.226 903.854C940.632 891.04 919.056 881.504 924.873 863.972C930.691 846.441 916.941 827.021 926.473 822.008C942.132 813.776 933.552 795.687 940.291 796.434C951.284 797.649 961.53 802.767 960.846 794.572C960.163 786.377 959.132 786.75 968.042 782.653C976.953 778.555 963.482 765.894 975.695 768.871C987.909 771.849 985.169 759.751 992.364 766.92C999.56 774.089 993.09 760.108 1002.83 769.992C1019.42 786.829 1012.32 763.038 1021.02 763.27C1031.46 763.548 1030.86 752.75 1037.31 758.893C1042.79 764.116 1049.32 754.422 1051.85 761.876C1054.37 769.324 1058.54 762.991 1060.41 774.168C1062.29 785.341 1064.01 777.335 1064.31 788.244C1064.54 796.902 1072.24 778.187 1080.95 787.871C1089.66 797.554 1101.51 786.256 1100.53 799.411C1099.54 812.561 1118.96 821.035 1112.79 834.074C1106.63 847.114 1120.83 852.879 1113.85 862.62C1106.87 872.357 1122.2 880.615 1111.58 890.304C1100.96 899.988 1117.75 904.842 1107.52 915.326C1097.3 925.814 1109.67 936.003 1100.62 944.308C1091.57 952.614 1103.7 966.658 1095.14 972.986C1086.58 979.319 1104.93 985.652 1096.17 998.313C1087.41 1010.97 1100.42 1027.73 1094.25 1033.69C1088.09 1039.65 1101.59 1051.99 1095.48 1062.37C1089.37 1072.76 1104.93 1082.41 1097.88 1089.94C1090.83 1097.46 1104.73 1104.46 1099.94 1112.29C1095.14 1120.11 1105.97 1130.63 1101.92 1138.41C1097.88 1146.18 1099.59 1153.26 1103.36 1156.98C1107.13 1160.7 1099.25 1167.04 1103.02 1173.74C1106.78 1180.45 1100.28 1182.7 1100.28 1182.7C1036.9 1182.69 928.982 1182.69 928.982 1182.69Z" fill="#F4E9E3"/>
<path d="M1019.13 860.401C1005.88 860.401 1006.9 869.926 996.02 878.511C985.716 886.643 987.525 896.936 994.663 900.997C1004.82 906.773 1013.47 897.72 1019.41 897.72C1025.36 897.72 1035.96 908.961 1045.81 899.75C1055.67 890.54 1045.87 880.962 1040.2 876.017C1033.58 870.237 1031.88 860.401 1019.13 860.401Z" fill="#EBA3A3"/>
<path d="M953.536 828.782C943.984 832.491 955.361 859.322 963.13 856.345C970.893 853.362 969.52 822.575 953.536 828.782Z" fill="#EBA3A3"/>
<path d="M995.01 803.308C982.933 805.265 990.602 833.638 999.966 832.539C1009.33 831.434 1008.67 801.093 995.01 803.308Z" fill="#EBA3A3"/>
<path d="M1042.75 800.221C1032.78 798.774 1030.88 826.789 1039.56 829.272C1048.24 831.755 1053.03 801.71 1042.75 800.221Z" fill="#EBA3A3"/>
<path d="M1083.62 826.005C1074.05 820.519 1065.88 841.633 1071.87 846.809C1077.21 851.38 1091.66 830.613 1083.62 826.005Z" fill="#EBA3A3"/>
<path d="M1379.35 868.672C1381.61 866.505 1385.55 853.118 1384.96 848C1374.52 852.034 1368.55 861.65 1368.55 861.65C1373.83 867.388 1379.35 868.672 1379.35 868.672Z" fill="white"/>
<path d="M1281.83 862.655C1280.64 859.757 1269.62 851.193 1264.64 849.868C1264.58 861.056 1271.34 870.129 1271.34 870.129C1278.62 867.315 1281.83 862.655 1281.83 862.655Z" fill="white"/>
<path d="M1235.42 927.932C1232.77 926.259 1218.82 925.68 1214 927.495C1220.44 936.642 1231.21 940.108 1231.21 940.108C1235.51 933.591 1235.42 927.932 1235.42 927.932Z" fill="white"/>
<path d="M1416.93 937.425C1423.02 933.343 1430.75 920.804 1430.75 920.804C1417.83 921.572 1408.77 927.379 1408.77 927.379C1413.56 938.356 1416.93 937.425 1416.93 937.425Z" fill="white"/>
<path d="M1250.65 975.418C1238.09 970.079 1229.28 957.629 1229.28 943.117C1229.28 924.501 1243.78 909.279 1262.11 908.117C1260.32 903.877 1259.32 899.217 1259.32 894.32C1259.32 874.768 1275.17 858.92 1294.72 858.92C1306.95 858.92 1317.72 865.116 1324.08 874.537C1330.92 864.653 1342.33 858.178 1355.25 858.178C1376.17 858.178 1393.13 875.136 1393.13 896.055C1393.13 901.841 1391.82 907.322 1389.5 912.23C1406.14 913.96 1419.11 928.026 1419.11 945.126C1419.11 959.228 1410.28 971.263 1397.85 976.018C1395.9 977.585 1394.38 979.021 1393.25 980.542C1381.23 994.459 1386.32 1009.01 1388.42 1001.65C1393.33 1014.63 1386.84 1044.61 1394.03 1028.12C1395.71 1033.19 1398.21 1047.13 1396.49 1063.37C1394.38 1083.18 1398.42 1084.93 1401.05 1078.09C1408.94 1098.26 1403.68 1108.43 1405.87 1119.03C1405.87 1119.03 1407.59 1117.27 1408.5 1114.26C1410.07 1126.6 1405.26 1145.95 1406.92 1158.75C1406.92 1158.75 1410.25 1157.87 1410.74 1150.99C1416.79 1174.39 1409.16 1188.99 1412.45 1198.2C1412.45 1198.2 1414.68 1197.76 1415.47 1191.09C1420.73 1205.56 1412.65 1215.33 1415.08 1235.54C1415.08 1235.54 1416.94 1234.43 1419.09 1225.69C1420.51 1244.48 1414.37 1254.12 1414.9 1279.2C1301.5 1279.2 1250.05 1279.2 1250.05 1279.2C1250.05 1279.2 1241.79 1260.81 1246.28 1240.59C1246.28 1240.59 1245.86 1247.81 1249.14 1251.48C1249.14 1251.48 1249.67 1242.16 1248.75 1233.76C1247.82 1225.36 1243.63 1212.5 1248.88 1199.24C1248.88 1199.24 1248.75 1206.2 1250.71 1209.61C1250.71 1209.61 1252.15 1204.62 1251.63 1196.87C1251.11 1189.13 1248.35 1178.37 1251.5 1170.1C1251.5 1170.1 1252.29 1175.74 1253.86 1176.53C1253.86 1176.53 1255.44 1173.38 1254.9 1165.23C1254.37 1157.08 1251.86 1147.26 1253.64 1141.65C1253.64 1141.65 1254.92 1145.29 1256.67 1144.01C1258.43 1142.73 1253.24 1127.57 1256.69 1118.61C1256.49 1120.68 1258.17 1125.01 1259.34 1124.91C1259.93 1124.62 1260.43 1113.89 1259.64 1107.78C1258.85 1101.67 1257.97 1093.02 1260.33 1084.35C1260.33 1084.35 1260.52 1091.05 1262.89 1089.37C1264.46 1082.77 1260.03 1064.7 1262.99 1056.23C1262.99 1056.23 1264.44 1061.02 1266.07 1060.89C1266.07 1059.77 1263.71 1047.76 1266.07 1038.31C1268.7 1044.09 1272.93 1033.94 1268.7 1019.41C1274.05 1020.93 1270.54 1011.95 1266.92 996.574C1275.42 993.055 1264.51 982.34 1250.65 975.418Z" fill="#FCD228"/>
<path d="M1330.65 924.654C1310.17 924.654 1292.58 956.419 1300.73 964.03C1312.83 975.35 1317.53 963.241 1329.08 963.241C1340.63 963.241 1348.92 974.461 1359.26 966.129C1370.03 957.466 1350.07 924.654 1330.65 924.654Z" fill="#593524"/>
<path d="M1381.58 942.238C1381.58 946.01 1384.63 949.066 1388.4 949.066C1392.18 949.066 1395.23 946.01 1395.23 942.238C1395.23 938.467 1392.18 935.41 1388.4 935.41C1384.63 935.416 1381.58 938.472 1381.58 942.238Z" fill="#593524"/>
<path d="M1345.77 900.337C1345.77 904.108 1348.83 907.164 1352.6 907.164C1356.37 907.164 1359.43 904.108 1359.43 900.337C1359.43 896.565 1356.37 893.509 1352.6 893.509C1348.83 893.509 1345.77 896.565 1345.77 900.337Z" fill="#593524"/>
<path d="M1288.99 901.621C1288.99 905.392 1292.05 908.448 1295.82 908.448C1299.59 908.448 1302.65 905.392 1302.65 901.621C1302.65 897.849 1299.59 894.793 1295.82 894.793C1292.05 894.793 1288.99 897.849 1288.99 901.621Z" fill="#593524"/>
<path d="M1258.54 946.93C1258.54 950.701 1261.59 953.757 1265.36 953.757C1269.13 953.757 1272.19 950.701 1272.19 946.93C1272.19 943.158 1269.13 940.102 1265.36 940.102C1261.59 940.102 1258.54 943.158 1258.54 946.93Z" fill="#593524"/>
<path d="M1331.93 1003.88C1338.05 1003.88 1344.13 1002.98 1349.51 1001.19C1350.75 1000.78 1351.42 999.435 1351.01 998.199C1350.6 996.963 1349.26 996.29 1348.02 996.706C1338.31 999.94 1325.6 999.94 1315.63 996.7C1314.39 996.301 1313.06 996.974 1312.66 998.215C1312.25 999.456 1312.93 1000.79 1314.17 1001.19C1319.68 1002.98 1325.82 1003.88 1331.93 1003.88Z" fill="#CCC5A9"/>
<path d="M966.4 209.527C964.139 211.694 960.199 225.081 960.788 230.199C971.224 226.165 977.194 216.549 977.194 216.549C971.913 210.811 966.4 209.527 966.4 209.527Z" fill="white"/>
<path d="M1063.92 215.545C1065.11 218.443 1076.12 227.006 1081.1 228.332C1081.17 217.144 1074.41 208.07 1074.41 208.07C1067.13 210.884 1063.92 215.545 1063.92 215.545Z" fill="white"/>
<path d="M1110.33 150.268C1112.98 151.941 1126.92 152.519 1131.75 150.705C1125.3 141.558 1114.53 138.091 1114.53 138.091C1110.24 144.608 1110.33 150.268 1110.33 150.268Z" fill="white"/>
<path d="M928.812 140.774C922.732 144.855 915 157.395 915 157.395C927.918 156.627 936.976 150.82 936.976 150.82C932.189 139.843 928.812 140.774 928.812 140.774Z" fill="white"/>
<path d="M1095.09 102.781C1107.65 108.12 1116.46 120.57 1116.46 135.082C1116.46 153.698 1101.96 168.92 1083.63 170.082C1085.43 174.322 1086.42 178.982 1086.42 183.879C1086.42 203.431 1070.57 219.279 1051.02 219.279C1038.79 219.279 1028.02 213.083 1021.66 203.662C1014.82 213.546 1003.41 220.021 990.491 220.021C969.572 220.021 952.614 203.063 952.614 182.144C952.614 176.358 953.918 170.877 956.238 165.974C938.212 164.244 926.53 152.041 926.63 133.078C926.698 119.113 936.976 106.163 947.89 102.186C966.179 93.5652 969.425 96.453 964.17 57.3396C956.822 2.60931 939.606 -124.188 936.981 -200.995C1050.38 -200.995 1095.69 -200.995 1095.69 -200.995C1089.78 -50.9743 1068.83 82.6665 1070.1 92.5185C1071.06 99.8404 1081.23 95.8586 1095.09 102.781Z" fill="#C26E40"/>
<path d="M964.17 57.3344C964.265 58.055 964.36 58.7598 964.454 59.4541C964.476 59.6277 964.502 59.7961 964.523 59.9696C964.591 60.5114 964.665 61.0479 964.728 61.5739C964.749 61.7317 964.77 61.8895 964.791 62.0473C964.965 63.4149 965.128 64.7299 965.275 65.9871C965.275 65.9871 965.275 65.9871 965.275 65.9923C968.92 32.3862 975.385 15.6962 969.793 -6.90602C965.506 -24.2219 967.163 -33.9424 968.968 -43.4104C986.247 -96.4891 995.562 -61.7783 1000.77 -105.168C1005.97 -148.563 1021.02 -166.705 1033.22 -143.04C1045.42 -119.37 1030.79 -109.902 1048.36 -98.8561C1064.82 -88.5149 1068.57 -70.1733 1066.09 -48.6283C1063.83 -41.5273 1062.33 -35.0681 1064.36 -27.8513C1073.07 3.09325 1055.74 22.2817 1063.57 37.6304C1071.54 53.2684 1070.49 65.4821 1071.53 74.2295C1071.53 74.2295 1071.53 74.2295 1071.53 74.2242C1076.26 31.2868 1090.92 -79.4835 1095.7 -201C1095.7 -201 1094.67 -201 1092.56 -201C1080.59 -201 1033.4 -201 936.981 -201C939.601 -124.193 956.822 2.60406 964.17 57.3344Z" fill="#A6562A"/>
<path d="M1015.1 153.545C1035.58 153.545 1053.16 121.78 1045.03 114.169C1032.92 102.849 1028.23 114.958 1016.68 114.958C1005.13 114.958 996.835 103.738 986.489 112.07C975.716 120.733 995.668 153.545 1015.1 153.545Z" fill="#EBA3A3"/>
<path d="M964.17 135.961C964.17 132.189 961.114 129.133 957.342 129.133C953.571 129.133 950.515 132.189 950.515 135.961C950.515 139.732 953.571 142.789 957.342 142.789C961.114 142.783 964.17 139.727 964.17 135.961Z" fill="#EBA3A3"/>
<path d="M999.969 177.862C999.969 174.091 996.913 171.035 993.142 171.035C989.37 171.035 986.314 174.091 986.314 177.862C986.314 181.633 989.37 184.689 993.142 184.689C996.913 184.689 999.969 181.633 999.969 177.862Z" fill="#EBA3A3"/>
<path d="M1056.76 176.578C1056.76 172.807 1053.7 169.751 1049.93 169.751C1046.16 169.751 1043.1 172.807 1043.1 176.578C1043.1 180.35 1046.16 183.406 1049.93 183.406C1053.7 183.406 1056.76 180.35 1056.76 176.578Z" fill="#EBA3A3"/>
<path d="M1087.21 131.269C1087.21 127.497 1084.15 124.441 1080.38 124.441C1076.61 124.441 1073.55 127.497 1073.55 131.269C1073.55 135.04 1076.61 138.096 1080.38 138.096C1084.15 138.096 1087.21 135.04 1087.21 131.269Z" fill="#EBA3A3"/>
<path d="M1013.81 74.319C1007.7 74.319 1001.62 75.2184 996.231 77.0121C994.995 77.4224 994.327 78.7637 994.737 79.9997C995.147 81.2358 996.483 81.9091 997.725 81.4936C1007.43 78.2587 1020.14 78.2587 1030.11 81.4988C1031.35 81.8986 1032.68 81.2253 1033.09 79.984C1033.49 78.7426 1032.81 77.4119 1031.57 77.0069C1026.07 75.2185 1019.92 74.319 1013.81 74.319Z" fill="#CCC5A9"/>
<path d="M609.794 860.5C605.37 857.707 601.83 850.302 599 843.448C605.87 846.067 613.481 848.876 616.563 853.81C615.753 855.703 609.794 860.5 609.794 860.5Z" fill="#D9CFCA"/>
<path d="M662.089 820.64C659.327 816.195 659.337 807.685 659.837 800.584C664.114 804.245 670.49 811.209 671.106 816.995C669.543 818.347 662.089 820.64 662.089 820.64Z" fill="#D9CFCA"/>
<path d="M728.454 818.368C728.37 813.134 732.736 806.007 736.817 800C738.406 807.069 740.204 815.086 737.759 820.372C735.728 820.724 728.454 818.368 728.454 818.368Z" fill="#D9CFCA"/>
<path d="M778.656 848.618C780.639 843.989 787.519 840.17 795.267 837.156C792.811 844.673 790.423 851.837 785.615 855.119C783.69 854.383 778.656 848.618 778.656 848.618Z" fill="#D9CFCA"/>
<path d="M619.484 1236.09C615.412 1229.78 619.547 1227.42 616.859 1223.68C621.256 1218.96 618.4 1212.26 617.464 1211.28C622.298 1208.74 620.236 1202.62 619.662 1201.24C623.392 1197.83 622.44 1193.76 621.845 1191.59C624.26 1189.09 624.996 1184.89 623.418 1182.53C625.27 1178.82 624.207 1175.44 623.023 1173.08C628.731 1166.38 624.417 1161.07 624.417 1161.07C627.305 1157.7 625.98 1151.23 625.98 1151.23C628.452 1145.54 624.796 1141.18 624.796 1141.18C628.141 1136.07 628.489 1132.52 626.837 1132.13C630.103 1127.74 629.62 1124.65 627.8 1121.89C630.829 1119.76 628.931 1112.24 627.353 1110.67C630.698 1108.5 630.309 1102.4 629.714 1100.23C632.612 1099.6 631.887 1092.36 630.109 1090.58C631.487 1088.22 634.406 1083.69 631.666 1081.73C635.621 1076.21 635.621 1071.29 631.681 1072.47C635.563 1064.43 633.454 1061.84 631.487 1063.22C636.484 1052.75 635.032 1049.24 631.681 1047.86C640.345 1040.38 630.303 1035.85 629.32 1035.85C638.272 1028.35 638.677 1021.09 635.179 1021.87C635.816 1016.16 642.317 1004.35 634.043 1005.13C638.178 1001 640.539 995.093 633.454 992.731C639.987 983.731 637.983 981.312 635.421 976.194C639.161 969.892 643.495 960.245 636.799 956.9C640.981 950.188 633.849 944.497 632.665 944.692C633.254 935.439 628.531 934.85 625.775 934.85C631.482 929.532 628.136 919.491 623.018 920.28C626.032 915.109 619.673 912.206 615.733 911.817C618.095 907.877 619.079 899.808 610.81 899.808C615.055 894.248 610.841 884.449 604.13 884.649C608.801 879.478 603.719 870.868 600.374 870.473C603.919 865.155 601.947 860.432 600.374 857.87C608.843 856.097 611.399 852.947 612.977 844.878C617.111 847.829 620.656 845.861 621.246 843.105C625.38 846.845 630.103 844.289 631.482 842.122C633.254 848.029 639.95 849.407 641.717 846.061C645.657 850.001 650.97 847.634 645.657 842.122C650.396 837.004 648.219 834.642 645.463 831.491C650.186 831.297 653.374 826.557 651.406 820.65C658.423 822.165 658.05 815.674 658.05 814.691C663.168 816.905 665.135 814.133 666.124 810.015C671.831 815.311 673.419 812.787 676.376 810.23C678.537 817.184 683.86 814.954 685.433 813.181C686.022 819.283 691.34 821.65 694.096 820.266C693.902 824.99 695.738 830.702 698.757 828.929C700.003 834.442 705.316 829.324 703.349 824.99C709.845 825.779 710.371 822.628 710.371 819.74C715.184 821.234 716.804 818.231 716.804 816.295C722.421 817.689 724.678 814.754 724.809 814.359C729.012 815.806 730.159 812.765 730.159 812.765C734.099 815.916 737.933 813.965 737.933 813.965C740.032 818.557 743.709 818.294 744.235 817.905C745.029 822.886 749.09 823.285 749.09 823.285C749.074 827.925 752.635 830.244 752.635 830.244C751.72 835.31 754.208 836.283 754.208 836.283C752.282 839.802 753.156 843.631 754.865 842.979C752.177 846.377 752.766 850.59 753.945 848.623C754.218 852.184 757.884 848.491 757.884 845.604C762.382 847.85 764.186 843.768 764.186 843.242C767.862 846.787 770.882 841.538 770.882 841.538C774.722 845.551 778.887 840.88 778.887 841.406C780.723 845.998 782.759 846.261 786.173 845.083C784.926 848.691 788.403 850.332 790.37 849.806C789.844 853.746 790.633 854.924 792.732 855.187C791.485 857.675 792.795 860.305 794.699 860.9C792.006 862.215 794.241 866.738 795.814 866.675C794.699 869.889 793.058 871.993 795.356 873.503C792.469 874.029 792.385 877.769 793.51 879.015C790.775 881.082 794.047 881.314 791.222 884.791C788.397 888.268 787.414 888.531 788.14 890.04C786.698 892.27 784.463 894.006 785.383 895.532C783.216 898.44 781.97 900.213 782.759 902.638C780.529 905.789 777.509 904.805 779.019 908.087C776.394 911.433 773.964 910.649 775.937 914.057C772.46 914.646 771.213 917.208 771.671 918.129C768.189 919.112 765.569 921.179 767.337 923.836C763.302 925.214 762.318 927.97 764.286 930.332C759.362 932.199 759.268 934.466 760.546 936.733C754.739 937.817 754.05 941.162 755.428 942.835C752.051 946.007 748.832 945.786 752.672 948.547C752.277 951.303 749.421 951.698 752.477 954.849C749.821 961.25 750.904 964.595 753.266 965.774C750.704 968.135 754.223 967.32 752.367 971.47C750.51 975.62 751.493 979.26 753.855 980.344C751.888 984.084 753.266 987.434 754.739 987.629C750.31 990.78 754.244 994.814 755.722 995.109C752.177 998.259 753.95 1005.74 755.528 1006.03C751.294 1009.18 753.445 1012.66 754.928 1013.33C751.194 1018.74 754.933 1024.05 757.495 1025.23C754.344 1027.49 752.772 1028.97 755.623 1031.14C754.739 1034.98 756.412 1039.31 758.379 1039.9C754.539 1043.15 756.017 1046.3 758.579 1046.69C755.623 1050.83 757.2 1053.09 758.873 1053.68C756.217 1055.06 755.496 1059.31 758.068 1059.9C756.606 1063.24 757.79 1066.68 760.446 1066.88C757.69 1069.24 759.362 1074.06 761.135 1074.16C759.189 1076.03 758.573 1082.24 761.33 1082.82C759.262 1087.45 758.673 1093.45 762.608 1094.54C760.793 1098.96 758.079 1103.1 762.413 1105.37C761.135 1110.19 758.868 1114.03 762.608 1115.8C761.33 1119.74 762.608 1127.22 766.742 1128.01C761.524 1132.74 760.835 1141.01 765.559 1142.48C762.013 1145.43 762.802 1151.44 766.542 1152.13C762.013 1156.16 763.491 1167.49 769.493 1167.98C764.57 1173.2 765.948 1180.48 769.199 1181.27C767.82 1185.51 767.031 1190.03 770.677 1191.51C764.67 1193.28 767.82 1203.22 771.56 1204.01C767.92 1206.18 773.233 1208.93 771.56 1214.74C769.888 1220.55 768.31 1223.21 772.349 1224.09C768.904 1225.86 772.249 1235.02 773.727 1236.5C765.18 1236.48 619.484 1236.09 619.484 1236.09Z" fill="white"/>
<path d="M636.53 988.976C636.488 988.655 636.436 988.376 636.373 988.134C635.689 989.465 634.742 990.969 633.459 992.737C640.549 995.098 638.182 1001.01 634.048 1005.14C642.316 1004.35 635.82 1016.16 635.184 1021.88C638.682 1021.09 638.277 1028.35 629.324 1035.86C630.308 1035.86 640.349 1040.39 631.686 1047.87C635.031 1049.24 636.483 1052.75 631.491 1063.23C633.459 1061.85 635.568 1064.44 631.686 1072.48C635.626 1071.29 635.626 1076.22 631.67 1081.73C634.411 1083.7 631.491 1088.23 630.113 1090.59C631.886 1092.36 632.617 1099.6 629.719 1100.24C630.308 1102.4 630.702 1108.5 627.357 1110.67C628.93 1112.24 630.829 1119.75 627.804 1121.9C629.629 1124.65 630.108 1127.74 626.841 1132.13C628.493 1132.53 628.146 1136.07 624.801 1141.19C624.801 1141.19 628.456 1145.55 625.984 1151.23C625.984 1151.23 627.31 1157.71 624.422 1161.08C624.422 1161.08 628.735 1166.4 623.028 1173.09C624.211 1175.45 625.269 1178.82 623.422 1182.54C624.995 1184.9 624.264 1189.1 621.85 1191.6C622.439 1193.76 623.396 1197.83 619.667 1201.24C620.24 1202.62 622.302 1208.75 617.468 1211.28C618.404 1212.27 621.261 1218.96 616.863 1223.69C619.556 1227.43 615.417 1229.79 619.488 1236.09C619.488 1236.09 765.185 1236.48 773.748 1236.48C772.27 1235.01 768.925 1225.85 772.37 1224.08C768.336 1223.2 769.908 1220.54 771.581 1214.73C773.254 1208.92 767.941 1206.17 771.581 1204C767.841 1203.21 764.69 1193.27 770.697 1191.5C767.057 1190.02 767.841 1185.49 769.219 1181.26C765.969 1180.47 764.59 1173.19 769.514 1167.97C763.507 1167.47 762.034 1156.15 766.563 1152.12C762.823 1151.43 762.034 1145.42 765.579 1142.47C760.856 1140.99 761.545 1132.73 766.763 1128C762.628 1127.21 761.35 1119.73 762.628 1115.79C758.889 1114.02 761.15 1110.18 762.434 1105.36C758.1 1103.1 760.819 1098.96 762.628 1094.53C758.689 1093.44 759.283 1087.44 761.35 1082.81C758.594 1082.22 759.204 1076.02 761.156 1074.15C759.383 1074.05 757.71 1069.23 760.467 1066.87C757.81 1066.67 756.627 1063.23 758.089 1059.89C755.512 1059.3 756.232 1055.05 758.894 1053.67C757.221 1053.08 755.643 1050.82 758.599 1046.68C756.038 1046.29 754.565 1043.14 758.399 1039.89C756.432 1039.3 754.759 1034.97 755.643 1031.13C752.787 1028.96 754.365 1027.49 757.516 1025.22C754.954 1024.04 751.214 1018.73 754.949 1013.32C753.465 1012.65 751.314 1009.17 755.548 1006.02C753.976 1005.73 752.203 998.244 755.743 995.098C754.986 994.946 753.576 993.804 752.987 992.3C752.193 994.42 749.815 994.814 744.034 991.101C744.034 991.101 737.643 997.697 735.318 991.038C735.318 991.038 731.252 998.275 724.278 994.236C719.049 998.328 710.917 989.56 706.846 990.722C704.521 994.788 699.877 990.722 692.323 990.107C689.42 997.623 685.932 994.793 677.637 989.707C675.733 993.336 673.151 995.956 663.856 989.707C657.465 987.524 651.653 994.793 647.008 989.707C642.343 984.615 637.693 997.691 636.53 988.976Z" fill="#B5BDCC"/>
<path d="M695.364 963.029C690.34 963.029 685.343 962.292 680.915 960.814C679.678 960.404 679.005 959.062 679.421 957.826C679.836 956.59 681.172 955.917 682.408 956.332C690.23 958.936 700.466 958.936 708.498 956.327C709.739 955.927 711.07 956.6 711.475 957.842C711.88 959.083 711.201 960.414 709.96 960.819C705.426 962.292 700.376 963.029 695.364 963.029Z" fill="#B7C4DE"/>
<path d="M697.635 893.464C724.687 893.464 732.036 921.422 722.189 928.907C712.342 936.386 709.192 923.789 698.167 923.789C687.142 923.789 683.597 936.392 673.755 927.728C663.914 919.065 672.966 893.464 697.635 893.464Z" fill="#593524"/>
<path d="M640.812 881.571C633.143 887.736 649.475 899.687 654.988 895.747C660.5 891.807 648.16 875.659 640.812 881.571Z" fill="#593524"/>
<path d="M675.428 855.588C669.469 857.576 674.366 876.112 680.814 875.228C691.97 873.697 684.586 852.532 675.428 855.588Z" fill="#593524"/>
<path d="M724.684 855.977C716.383 853.283 710.376 872.378 717.725 875.003C725.078 877.628 734.4 859.127 724.684 855.977Z" fill="#593524"/>
<path d="M758.941 880.924C752.808 876.085 740.562 891.14 746.601 895.863C752.64 900.592 766.295 886.726 758.941 880.924Z" fill="#593524"/>
<path d="M323.11 48.9148C322.332 97.2173 272.456 147.955 292.928 182.198C299.987 193.433 313.437 193.118 322.332 193.039C337.034 192.907 329.291 213.711 345.96 220.601C355.117 224.388 366.174 225.062 381.139 214.563C387.898 210.954 394.594 228.081 412.115 226.64C432.944 224.925 433.05 200.05 437.315 199.198C443.827 197.894 459.812 205.868 470.59 190.088C490.867 160.385 459.749 118.226 450.986 89.8744C430.73 31.9776 460.943 -198 460.943 -198H303.827C303.827 -198 325.483 8.10248 323.11 48.9148Z" fill="#FCD228"/>
<path d="M386.042 143.058C371.566 143.058 372.676 133.617 360.798 125.106C349.547 117.042 351.52 106.843 359.315 102.819C370.409 97.0911 379.85 106.07 386.347 106.07C392.843 106.07 404.42 94.924 415.182 104.055C425.95 113.187 415.251 122.681 409.054 127.583C401.816 133.306 399.96 143.058 386.042 143.058Z" fill="#593524"/>
<path d="M308.561 172.678C298.904 166.145 318.645 141.933 326.503 147.208C334.362 152.479 324.725 183.613 308.561 172.678Z" fill="#593524"/>
<path d="M355.854 199.377C341.978 197.31 350.789 167.312 361.551 168.475C372.313 169.642 371.545 201.718 355.854 199.377Z" fill="#593524"/>
<path d="M411.673 199.14C396.172 201.018 394.394 170.594 404.399 168.906C417.985 166.613 426.29 197.368 411.673 199.14Z" fill="#593524"/>
<path d="M460.46 181.62C448.993 189.184 436.069 162.541 443.044 155.777C449.272 149.807 470.091 175.265 460.46 181.62Z" fill="#593524"/>
<path d="M387.219 59.0718C376.552 59.0718 365.595 61.6072 354.86 66.678C353.045 67.5354 352.503 69.3291 353.655 70.6862C354.807 72.0433 357.211 72.4431 359.026 71.5857C377.983 62.6329 396.813 62.6066 413.488 71.4962C415.234 72.4273 417.669 72.1275 418.916 70.823C420.168 69.5184 419.763 67.7037 418.011 66.7727C408.385 61.6388 397.95 59.0718 387.219 59.0718Z" fill="#DED6B8"/>
<path d="M338.207 -18.1134C364.112 -11.8225 370.166 -4.46372 362.949 -1.83898C348.064 -4.33748 334.577 1.44328 322.558 17.4968C322.022 6.71906 321.212 -5.75767 320.233 -19.1707C325.078 -19.9492 331.027 -19.8598 338.207 -18.1134Z" fill="#FFF2BF"/>
<path d="M1243.1 -237.606C1239.03 -231.304 1243.17 -228.942 1240.48 -225.202C1244.88 -220.479 1242.02 -213.783 1241.08 -212.799C1245.92 -210.264 1243.86 -204.136 1243.28 -202.758C1247.01 -199.35 1246.06 -195.278 1245.47 -193.111C1247.88 -190.613 1248.62 -186.415 1247.04 -184.053C1248.89 -180.34 1247.83 -176.963 1246.64 -174.601C1252.35 -167.905 1248.04 -162.593 1248.04 -162.593C1250.93 -159.221 1249.6 -152.746 1249.6 -152.746C1252.07 -147.065 1248.42 -142.705 1248.42 -142.705C1251.76 -137.587 1252.11 -134.041 1250.46 -133.647C1253.72 -129.26 1253.24 -126.167 1251.42 -123.411C1254.45 -121.275 1252.55 -113.764 1250.97 -112.186C1254.32 -110.019 1253.93 -103.917 1253.33 -101.75C1256.23 -101.119 1255.51 -93.876 1253.73 -92.1034C1255.11 -89.7417 1258.03 -85.2128 1255.29 -83.2456C1259.24 -77.7331 1259.24 -72.8097 1255.3 -73.9932C1259.18 -65.9454 1257.07 -63.3628 1255.11 -64.7409C1260.1 -54.2682 1258.65 -50.7598 1255.3 -49.3817C1263.97 -41.902 1253.92 -37.3731 1252.94 -37.3731C1261.89 -29.8723 1262.3 -22.6083 1258.8 -23.392C1259.44 -17.6797 1265.94 -5.87097 1257.66 -6.65472C1261.8 -2.52036 1264.16 3.38661 1257.07 5.74835C1260.62 13.6226 1261.6 17.1678 1259.04 22.2858C1262.78 28.5873 1267.12 38.2341 1260.42 41.5795C1264.6 48.2912 1257.47 53.9825 1256.29 53.7879C1256.87 63.0403 1252.15 63.6346 1249.4 63.6346C1255.1 68.9525 1251.76 78.9939 1246.64 78.2049C1249.65 83.3754 1243.29 86.2789 1239.35 86.6734C1241.72 90.6132 1242.7 98.682 1234.43 98.682C1238.68 104.242 1234.46 114.041 1227.76 113.841C1232.43 119.012 1227.35 127.623 1224 128.017C1227.55 133.335 1225.57 138.058 1224 140.62C1232.46 142.393 1235.02 145.543 1236.6 153.612C1240.74 150.661 1244.28 152.629 1244.87 155.385C1249.01 151.645 1253.73 154.201 1255.11 156.368C1255.99 153.418 1263.42 154.107 1263.8 158.288C1269.91 157.157 1270.47 165.426 1269.09 166.999C1273.81 167.194 1277.55 173.695 1275.58 179.602C1282.6 178.087 1283.85 182.553 1283.85 183.542C1287.79 182.163 1288.77 186.414 1289.9 189.249C1295.51 186.098 1297.04 185.703 1300 188.265C1302.16 181.311 1307.48 183.542 1309.05 185.314C1309.26 183.121 1312.24 178.718 1316.67 179.965C1317.66 176.751 1321.73 175.178 1323.62 178.318C1329.38 173.795 1334 177.456 1334 178.75C1338.8 177.256 1340.43 180.259 1340.43 182.195C1346.05 180.801 1348.3 183.736 1348.44 184.131C1352.64 182.689 1354.34 184.92 1354.34 184.92C1358.28 181.769 1361.56 184.525 1361.56 184.525C1363.66 179.933 1367.33 180.196 1367.86 180.585C1368.66 175.604 1372.72 175.204 1372.72 175.204C1372.7 170.565 1376.26 168.246 1376.26 168.246C1375.35 163.18 1377.83 162.207 1377.83 162.207C1379.25 153.807 1385.88 156.432 1385.88 156.958C1389.56 153.412 1394.5 156.958 1394.5 156.958C1398.34 152.944 1402.51 157.615 1402.51 157.089C1404.34 152.497 1406.38 152.234 1409.79 153.412C1408.55 149.804 1412.02 148.163 1414 148.689C1413.47 144.749 1414.26 143.571 1416.36 143.308C1415.11 140.82 1416.42 138.19 1418.33 137.601C1415.63 136.286 1417.87 131.762 1419.44 131.825C1418.33 128.611 1416.68 126.507 1418.98 124.998C1416.09 124.472 1416.01 120.732 1417.14 119.485C1414.4 117.418 1417.67 117.187 1414.85 113.71C1412.03 110.233 1411.04 109.97 1411.77 108.46C1410.32 106.23 1408.09 104.494 1409.01 102.969C1406.84 100.06 1405.6 98.2875 1406.38 95.8626C1404.15 92.7119 1401.14 93.6955 1402.65 90.4133C1400.02 87.0679 1397.59 87.8517 1399.56 84.4432C1396.09 83.8541 1394.84 81.2925 1395.3 80.372C1391.81 79.3884 1389.2 77.3211 1390.96 74.6596C1386.93 73.2815 1385.94 70.5252 1387.91 68.1635C1382.99 66.2962 1382.89 64.0291 1384.17 61.7621C1378.37 60.6785 1377.68 57.3332 1379.05 55.6605C1375.68 52.4887 1372.46 52.7096 1376.3 49.9481C1375.9 47.1919 1373.05 46.7974 1376.1 43.6467C1373.44 37.2452 1374.53 33.8999 1376.89 32.7216C1374.33 30.3599 1377.84 31.1752 1375.99 27.0251C1374.13 22.8749 1375.11 19.235 1377.48 18.1514C1375.51 14.4116 1376.89 11.061 1378.36 10.8663C1373.93 7.71559 1377.87 3.68118 1379.34 3.38661C1375.8 0.235886 1377.57 -7.24384 1379.15 -7.53839C1374.91 -10.6891 1377.07 -14.1607 1378.55 -14.8393C1374.81 -20.2413 1378.55 -25.5539 1381.12 -26.7374C1377.97 -28.9992 1376.39 -30.4772 1379.24 -32.6444C1378.36 -36.4842 1380.03 -40.8132 1382 -41.4075C1378.16 -44.6582 1379.64 -47.809 1382.19 -48.1982C1379.24 -52.3326 1380.82 -54.5996 1382.49 -55.1887C1379.83 -56.5669 1379.11 -60.8169 1381.68 -61.4008C1380.22 -64.7409 1381.41 -68.1862 1384.06 -68.3808C1381.31 -70.7426 1382.98 -75.566 1384.75 -75.6659C1382.8 -77.5332 1382.19 -83.74 1384.95 -84.3291C1382.88 -88.9579 1382.29 -94.9596 1386.23 -96.0431C1384.41 -100.467 1381.7 -104.606 1386.03 -106.873C1384.76 -111.697 1382.49 -115.537 1386.23 -117.309C1384.95 -121.249 1386.23 -128.729 1390.36 -129.518C1385.15 -134.241 1384.46 -142.51 1389.18 -143.988C1385.63 -146.939 1386.42 -152.946 1390.16 -153.635C1385.63 -157.669 1387.11 -168.994 1393.11 -169.483C1388.19 -174.701 1389.57 -181.986 1392.82 -182.775C1391.44 -187.01 1390.65 -191.538 1394.3 -193.011C1388.29 -194.784 1391.44 -204.725 1395.18 -205.514C1391.54 -207.681 1396.85 -210.438 1395.18 -216.245C1393.51 -222.052 1391.93 -224.713 1395.97 -225.597C1392.52 -227.37 1395.87 -236.522 1397.35 -238C1388.8 -238 1243.1 -237.606 1243.1 -237.606Z" fill="#CFB897"/>
<path d="M1319.71 115.809C1346.76 115.809 1354.11 87.8518 1344.26 80.3668C1334.42 72.8871 1331.27 85.4848 1320.24 85.4848C1309.22 85.4848 1305.67 72.8818 1295.83 81.545C1285.99 90.2135 1295.04 115.809 1319.71 115.809Z" fill="#593524"/>
<path d="M1257.32 126.328C1249.97 119.785 1266.51 106.556 1272.02 110.491C1277.54 114.43 1265.32 133.461 1257.32 126.328Z" fill="#593524"/>
<path d="M1294.51 155.264C1285.54 151.608 1292.63 132.445 1301.13 134.486C1310.82 136.811 1303.38 158.878 1294.51 155.264Z" fill="#593524"/>
<path d="M1350.22 154.08C1341.81 156.4 1335.88 136.817 1343.33 134.523C1350.79 132.23 1360.06 151.366 1350.22 154.08Z" fill="#593524"/>
<path d="M1383.82 120.401C1377.69 125.24 1365.44 110.186 1371.48 105.463C1377.52 100.739 1391.17 114.604 1383.82 120.401Z" fill="#593524"/>
<path d="M1257.14 53.5092C1259.32 52.2994 1264.01 47.313 1260.44 41.5796C1267.13 38.2342 1262.8 28.5873 1259.06 22.2859C1261.62 17.1679 1260.63 13.6226 1257.09 5.74843C1264.18 3.38669 1261.81 -2.52028 1257.68 -6.65464C1265.34 -5.9235 1260.33 -16.0069 1259.04 -22.0349C1264.88 -22.2611 1267.81 -13.2086 1270.74 -14.4657C1274.42 -16.0385 1264.96 -3.44079 1270.74 -3.96679C1276.52 -4.49279 1275.99 4.95943 1282.82 3.90743C1289.64 2.85543 1282.81 14.9324 1291.74 13.3596C1300.67 11.7869 1285.97 17.5624 1289.12 24.3846C1292.27 31.2068 1269.17 25.4366 1271.79 34.3576C1274.42 43.2838 1270.21 40.133 1267.59 48.5333C1266.34 52.5361 1261.87 53.7933 1257.14 53.5092Z" fill="#F4E9E3"/>
<path d="M643.797 30.5028C633.477 69.3532 598.56 87.7316 613.788 112.143C627.207 133.662 648.915 118.182 652.66 119.755C656.4 121.327 649.173 146.907 669.313 153.618C691.169 160.904 698.733 139.443 704.051 138.654C709.369 137.865 718.358 162.676 741.329 154.665C756.819 149.284 757.803 133.73 755.441 120.933C755.047 116.798 759.197 123.794 771.742 126.971C788.322 131.169 805.254 114.863 793.834 89.6621C782.415 64.4614 756.946 36.2678 755.636 24.9798C754.321 13.6919 769.812 -192.91 774.535 -263C685.541 -263 623.525 -263 623.525 -263C623.525 -263 649.73 8.16885 643.797 30.5028Z" fill="#262521"/>
<path d="M702.325 73.2928C729.377 73.2928 736.725 45.336 726.879 37.851C717.032 30.3713 713.886 42.969 702.856 42.969C691.831 42.969 688.286 30.366 678.445 39.0292C668.603 47.6977 677.661 73.2928 702.325 73.2928Z" fill="#F4E9E3"/>
<path d="M634.165 100.855C626.239 95.0271 641.098 80.904 648.341 86.6795C653.638 90.9033 642.403 106.915 634.165 100.855Z" fill="#F4E9E3"/>
<path d="M681.316 126.571C674.752 125.556 676.982 105.915 687.244 105.605C697.512 105.295 693.399 128.438 681.316 126.571Z" fill="#F4E9E3"/>
<path d="M733.638 126.246C725.516 129.444 719.303 110.523 726.478 107.451C733.653 104.379 743.138 122.506 733.638 126.246Z" fill="#F4E9E3"/>
<path d="M774.16 99.8083C768.217 104.884 755.403 90.314 761.252 85.3591C767.096 80.4042 781.277 93.7278 774.16 99.8083Z" fill="#F4E9E3"/>
<path d="M308.453 889.306C297.955 862.79 266.978 821.578 276.951 805.824C290.522 784.4 313.571 801.627 317.311 800.049C321.051 798.476 312.919 771.124 333.06 764.412C354.915 757.127 363.378 780.361 368.696 781.15C374.014 781.939 383.003 757.127 405.974 765.138C421.465 770.519 422.448 786.073 420.086 798.87C419.692 803.005 423.842 796.009 436.387 792.832C452.967 788.634 469.899 804.94 458.479 830.141C447.06 855.342 421.596 883.535 420.281 894.823C418.966 906.111 434.457 1112.71 439.18 1182.8C350.186 1182.8 288.166 1182.8 288.166 1182.8C288.166 1182.8 316.964 910.787 308.453 889.306Z" fill="#F4E9E3"/>
<path d="M363.063 842.154C390.115 842.154 397.464 870.111 387.617 877.596C377.77 885.076 374.625 872.478 363.595 872.478C352.57 872.478 349.024 885.081 339.183 876.418C329.342 867.749 338.399 842.154 363.063 842.154Z" fill="#EBA3A3"/>
<path d="M307.417 829.82C299.806 836.058 315.276 848.119 320.436 843.732C325.659 839.298 314.35 824.139 307.417 829.82Z" fill="#EBA3A3"/>
<path d="M343.086 806.419C337.442 808.838 343.701 826.239 349.976 824.24C355.389 822.514 352.043 802.579 343.086 806.419Z" fill="#EBA3A3"/>
<path d="M389.547 807.602C381.246 804.909 374.361 824.823 381.709 827.447C389.058 830.072 399.262 810.752 389.547 807.602Z" fill="#EBA3A3"/>
<path d="M423.122 829.646C416.989 824.807 404.744 839.861 410.782 844.584C416.821 849.308 430.476 835.442 423.122 829.646Z" fill="#EBA3A3"/>
<path d="M348.072 1057.23C343.543 1035.96 361.264 1025.72 372.289 1002.4C383.314 979.067 340.787 980.834 334.086 963.508C328.72 949.642 321.104 958.458 308.585 949.632C306.602 984.743 302.867 1029.8 299.122 1070.93C319.289 1081.35 351.901 1075.2 348.072 1057.23Z" fill="#593524"/>
<path d="M51.2987 995.029C49.2315 976.535 14.8364 902.111 29.7275 877.637C39.2481 863.019 53.3449 868.442 59.8094 869.436C64.4119 870.141 60.6878 852.846 77.0464 846.161C85.3362 842.773 95.2355 843.668 105.319 853.641C111.799 859.085 116.349 838.129 136.495 839.028C154.521 839.833 157.661 862.84 161.343 863.577C166.966 864.702 177.628 855.992 187.091 860.242C206.989 869.184 216.031 897.193 193.377 945.501C164.825 1006.38 171.821 1004.13 174.409 1097.07C177.297 1170.14 181.394 1246.76 181.394 1246.76H33.4568C33.4568 1246.76 48.937 1123.79 51.446 1059.31C51.9194 1047.16 54.1707 1020.74 51.2987 995.029Z" fill="#D3D4D6"/>
<path d="M110.858 915.508C94.6678 915.508 95.9144 926.439 82.6276 936.291C70.0457 945.622 72.2496 957.431 80.9655 962.091C93.3685 968.719 103.931 958.33 111.195 958.33C118.459 958.33 131.404 971.228 143.444 960.661C155.484 950.093 143.523 939.105 136.595 933.429C128.505 926.796 126.428 915.508 110.858 915.508Z" fill="white"/>
<path d="M50.2306 892.402C41.6724 895.9 50.6671 923.799 62.3287 917.86C71.9336 912.968 61.6344 887.736 50.2306 892.402Z" fill="white"/>
<path d="M87.1619 872.345C73.2861 874.413 82.8172 902.595 93.5738 901.433C104.336 900.265 102.852 870.005 87.1619 872.345Z" fill="white"/>
<path d="M134.538 870.31C121.304 868.784 118.516 896.415 130.036 899.04C141.55 901.659 148.177 871.883 134.538 870.31Z" fill="white"/>
<path d="M174.867 888.388C161.549 883.69 153.906 908.934 162.28 914.142C176.334 920.785 183.583 891.465 174.867 888.388Z" fill="white"/>
</g>
<defs>
<linearGradient id="paint0_linear_231_7" x1="-5" y1="516.5" x2="1441" y2="516.5" gradientUnits="userSpaceOnUse">
<stop stop-color="#6A11CB"/>
<stop offset="1" stop-color="#2575FC"/>
</linearGradient>
<clipPath id="clip0_231_7">
<rect width="1440" height="1028" fill="white" transform="translate(-4 5)"/>
</clipPath>
<clipPath id="clip1_231_7">
<rect width="2104" height="1052" fill="white" transform="translate(-190 -24)"/>
</clipPath>
</defs>
</svg>
