<svg width="1270" height="248" viewBox="0 0 1270 248" fill="none" xmlns="http://www.w3.org/2000/svg">
<ellipse cx="125.739" cy="124" rx="125.739" ry="124" fill="url(#paint0_linear_234_516)"/>
<mask id="mask0_234_516" style="mask-type:alpha" maskUnits="userSpaceOnUse" x="0" y="0" width="252" height="248">
<ellipse cx="125.739" cy="124" rx="125.739" ry="124" fill="#FFF2BF"/>
</mask>
<g mask="url(#mask0_234_516)">
<path d="M74.749 70.627L173.106 72.8051C173.106 72.8051 177.912 97.2922 174.208 105.322C170.116 114.19 183.075 108.123 188.214 108.123C191.676 108.123 188.215 116.886 178.142 125.392C171.486 131.014 156.582 131.46 156.582 131.46C156.582 131.46 137.13 133.162 124.636 133.172C111.957 133.181 104.613 134.091 92.2172 131.46C84.521 129.827 65.794 132.845 59.9561 126.481C47.6812 113.101 67.8247 131.46 69.2411 108.123C69.8697 97.764 74.749 70.627 74.749 70.627Z" fill="#442C27"/>
<path d="M42.8829 191.367H74.2784V199.146L41.2305 192.923L42.8829 191.367Z" fill="#07152C"/>
<path d="M183.178 195.413L210.036 192.302L213.393 195.413L183.178 200.081V195.413Z" fill="#07152C"/>
<path d="M175.301 136.389C175.301 136.389 169.444 132.574 187.016 142.493C204.589 152.411 200.099 175.133 201.241 196.661C202.378 218.088 201.241 252.356 201.241 252.356L176.975 250.83C176.975 250.83 179.069 224.147 180.322 204.291C181.789 181.059 175.301 136.389 175.301 136.389Z" fill="#FFD4CB"/>
<path d="M86.8652 134.832C86.8652 134.832 81.2193 131.028 69.0799 140.92C56.9405 150.811 56.0836 173.473 54.9488 194.944C53.8193 216.314 54.9488 250.49 54.9488 250.49L79.0548 248.968C79.0548 248.968 75.3125 222.356 74.0674 202.553C72.6106 179.383 86.8652 134.832 86.8652 134.832Z" fill="#FFD4CB"/>
<path d="M82.1224 133.772C82.1224 133.772 97.8675 133.267 104.739 133.009C115.203 132.617 131.544 132.247 131.544 132.247C131.544 132.247 145.338 132.537 154.161 133.009C162.47 133.454 173.427 134.535 173.427 134.535C173.427 134.535 180.717 169.875 180.966 192.902C181.208 215.254 177.178 249.722 177.178 249.722L74.4492 250.49C74.4492 250.49 67.77 215.356 70.0212 192.902C72.4329 168.846 82.1224 133.772 82.1224 133.772Z" fill="#0B254D"/>
<ellipse cx="123.849" cy="138.626" rx="14.3208" ry="5.44542" fill="#0C2141"/>
<mask id="mask1_234_516" style="mask-type:alpha" maskUnits="userSpaceOnUse" x="109" y="133" width="30" height="12">
<ellipse cx="123.849" cy="138.626" rx="14.3208" ry="5.44542" fill="#0C2141"/>
</mask>
<g mask="url(#mask1_234_516)">
<path d="M116.256 124.157H133.225L134.074 142.394C134.074 142.394 131.58 143.595 129.831 143.914C127.883 144.269 126.729 143.914 124.741 143.914C122.753 143.914 121.614 144.191 119.65 143.914C117.58 143.621 114.56 142.394 114.56 142.394L116.256 124.157Z" fill="#FFCABF"/>
</g>
<path d="M116.259 124.156H133.228L134.077 142.393C134.077 142.393 131.583 143.595 129.834 143.913C127.886 144.268 126.732 143.913 124.744 143.913C122.756 143.913 121.617 144.191 119.653 143.913C117.583 143.621 114.562 142.393 114.562 142.393L116.259 124.156Z" fill="#FFCABF"/>
<ellipse cx="125.423" cy="86.0379" rx="47.054" ry="42.7855" fill="#FFD4CB"/>
<ellipse cx="104.63" cy="86.6695" rx="4.1992" ry="3.81746" fill="#4B332E"/>
<ellipse cx="146.621" cy="86.6695" rx="4.1992" ry="3.81746" fill="#593524"/>
<ellipse cx="124.79" cy="101.942" rx="4.1992" ry="2.29048" fill="#FFBCAE"/>
<ellipse cx="124.788" cy="96.5963" rx="2.51952" ry="7.63492" fill="#FFC4B8"/>
<path d="M172.863 79.3479C160.26 79.3479 170.243 74.9223 153.539 74.9223C136.835 74.9223 123.293 66.3184 123.293 55.7048C123.293 45.0913 108.17 40.7262 132.535 38.6067C156.899 37.6514 177.063 68.3994 172.863 79.3479Z" fill="#4B332E"/>
<path d="M108.172 63.5955C97.1102 74.3286 88.6012 74.3286 79.2413 92.728C74.136 88.8948 72.4342 75.0952 76.6887 63.5955C85.1976 49.796 106.431 39.8296 115.83 39.8296C125.229 39.8296 108.172 52.1636 108.172 63.5955Z" fill="#4B332E"/>
<path d="M169.207 69.0606C177.557 88.8698 145.828 56.8703 131.633 62.9655C120.566 62.9655 105.749 53.6983 105.749 46.9658C105.749 40.2333 120.566 38.585 131.633 38.585C142.701 38.585 161.36 50.4423 169.207 69.0606Z" fill="#4B332E"/>
<path d="M132.672 52.1595C129.831 79.8084 137.389 80.5719 136.55 80.5719C121.064 80.5719 118.913 75.2274 109.632 67.493C99.5967 51.5592 101.395 47.4268 107.758 43.1926C114.12 38.9584 125.275 42.973 132.672 52.1595Z" fill="#4B332E"/>
<path d="M114.324 64.909C115.121 70.2078 111.354 75.9825 115.121 78.5205C110.515 79.8 105.184 78.8022 101.089 73.7171C97.917 66.0572 97.0771 66.8207 100.292 60.1056C102.116 46.2064 118.03 54.938 114.324 64.909Z" fill="#4B332E"/>
<path d="M143.784 60.9367C143.784 64.7086 139.091 65.4721 146.65 76.9245C135.732 77.688 134.643 74.83 130.549 69.7448C126.454 64.6597 126.097 58.5656 129.752 56.1333C133.407 53.701 143.29 51.7292 143.784 60.9367Z" fill="#4B332E"/>
<path d="M155.148 52.4861C158.77 53.6724 158.027 58.3165 171.401 54.8248C168.7 65.3111 165.613 65.4337 159.443 67.6773C153.273 69.9209 147.309 68.339 146.123 64.1441C144.937 59.9492 146.153 50.0535 155.148 52.4861Z" fill="#4B332E"/>
<path d="M149.136 43.3453C152.819 44.3328 152.335 49.0103 165.494 44.7965C163.381 55.4138 160.306 55.7041 154.27 58.2799C148.234 60.8557 142.191 59.6006 140.774 55.4765C139.356 51.3524 140.019 41.4056 149.136 43.3453Z" fill="#4B332E"/>
<path d="M138.002 37.4471C141.794 37.8554 142.054 42.5502 154.388 36.3613C153.974 47.1744 150.982 47.9347 145.426 51.4087C139.869 54.8827 133.703 54.5735 131.653 50.7181C129.602 46.8627 128.69 36.9353 138.002 37.4471Z" fill="#4B332E"/>
<path d="M89.6299 54.7424C86.0012 55.9074 86.716 60.5558 73.3639 56.9854C76.0014 67.4875 79.0871 67.6282 85.2438 69.9081C91.4006 72.1879 97.3735 70.6412 98.5847 66.4533C99.7959 62.2655 98.6403 52.3628 89.6299 54.7424Z" fill="#4B332E"/>
<path d="M95.294 43.8518C91.6653 45.0168 92.3801 49.6652 79.028 46.0948C81.6655 56.5968 84.7511 56.7376 90.9079 59.0175C97.0647 61.2973 103.038 59.7506 104.249 55.5627C105.46 51.3748 104.304 41.4722 95.294 43.8518Z" fill="#4B332E"/>
<path d="M105.052 39.1936C101.423 40.3585 102.138 45.007 88.7858 41.4366C91.4233 51.9386 94.5089 52.0794 100.666 54.3593C106.823 56.6391 112.795 55.0924 114.007 50.9045C115.218 46.7166 114.062 36.814 105.052 39.1936Z" fill="#4B332E"/>
<path d="M111.664 47.0517C109.434 43.8711 112.94 40.9342 99.7948 34.9704C108.55 28.9915 111.158 30.8697 117.617 33.1568C124.077 35.4439 127.981 40.4085 126.337 44.2455C124.693 48.0824 117.525 54.5748 111.664 47.0517Z" fill="#4B332E"/>
<path d="M120.178 36.0202C123.53 33.797 126.974 36.7933 132.696 24.4921C139.809 32.0601 137.911 34.544 135.806 40.5485C133.701 46.553 128.496 50.4068 124.18 49.1564C119.865 47.9059 112.287 41.8096 120.178 36.0202Z" fill="#4B332E"/>
<path d="M173.418 134.562C173.418 134.562 182.702 135.76 189.44 136.282C197.146 136.879 201.672 148.905 201.672 148.905L213.491 195.371L176.586 196.723L173.418 134.562Z" fill="#0B254D"/>
<path d="M53.8567 150.502C53.8567 150.502 61.9153 135.095 70.428 134.269C78.9407 133.442 83.1327 133.789 83.1327 133.789L84.5629 196.671L40.9662 193.063L53.8567 150.502Z" fill="#0B254D"/>
<rect x="92.2744" y="81.2803" width="24.1236" height="12.6249" rx="4" stroke="#1E1009" stroke-width="2"/>
<rect x="134.139" y="81.2803" width="24.1236" height="12.6249" rx="4" stroke="#1E1009" stroke-width="2"/>
<path d="M117.081 84.3262C117.081 84.3262 122.144 83.4059 125.422 83.3927C128.822 83.3791 134.077 84.3262 134.077 84.3262V87.1267C134.077 87.1267 128.822 86.1796 125.422 86.1932C122.144 86.2064 117.081 87.1267 117.081 87.1267V84.3262Z" fill="#1E1009"/>
</g>
<ellipse cx="380.37" cy="124" rx="125.739" ry="124" fill="url(#paint1_linear_234_516)"/>
<mask id="mask2_234_516" style="mask-type:alpha" maskUnits="userSpaceOnUse" x="254" y="0" width="253" height="248">
<ellipse cx="380.37" cy="124" rx="125.739" ry="124" fill="#FFF2BF"/>
</mask>
<g mask="url(#mask2_234_516)">
<path d="M297.215 191.367H328.91V199.146L295.547 192.923L297.215 191.367Z" fill="#853737"/>
<path d="M437.811 195.412L464.669 192.301L468.026 195.412L437.811 200.08V195.412Z" fill="#853737"/>
<path d="M429.934 136.39C429.934 136.39 424.077 132.575 441.649 142.493C459.221 152.411 454.732 175.133 455.874 196.661C457.011 218.088 455.874 252.356 455.874 252.356L431.608 250.83C431.608 250.83 433.701 224.147 434.955 204.291C436.421 181.059 429.934 136.39 429.934 136.39Z" fill="#FFD4CB"/>
<path d="M341.499 134.831C341.499 134.831 335.853 131.027 323.714 140.919C311.574 150.81 310.717 173.472 309.583 194.943C308.453 216.312 309.583 250.488 309.583 250.488L333.689 248.967C333.689 248.967 329.946 222.355 328.701 202.552C327.244 179.382 341.499 134.831 341.499 134.831Z" fill="#FFD4CB"/>
<path d="M336.753 133.771C336.753 133.771 352.498 133.266 359.37 133.008C369.834 132.617 386.175 132.246 386.175 132.246C386.175 132.246 399.969 132.536 408.792 133.008C417.101 133.453 428.058 134.534 428.058 134.534C428.058 134.534 435.348 169.874 435.597 192.9C435.839 215.253 431.809 249.721 431.809 249.721L329.08 250.489C329.08 250.489 322.401 215.355 324.652 192.9C327.064 168.845 336.753 133.771 336.753 133.771Z" fill="#A45656"/>
<ellipse cx="378.481" cy="138.625" rx="14.3208" ry="5.44541" fill="#731E1E"/>
<path d="M370.893 124.778H387.862L388.71 143.015C388.71 143.015 386.217 144.216 384.468 144.535C382.52 144.89 381.366 144.535 379.378 144.535C377.39 144.535 376.251 144.812 374.287 144.535C372.217 144.242 369.196 143.015 369.196 143.015L370.893 124.778Z" fill="#FFCABF"/>
<path d="M361.643 137.847C361.643 137.847 362.78 140.934 363.483 142.156C365.59 145.821 370.102 144.313 374.523 144.741C377.739 145.053 379.596 145.127 382.803 144.741C385.742 144.387 387.541 144.309 390.163 143.017C391.31 142.453 392.16 142.274 392.923 141.294C393.592 140.434 395.619 139.627 395.635 138.562" stroke="#A45656" stroke-width="3"/>
<ellipse cx="380.055" cy="86.0373" rx="47.0539" ry="42.7853" fill="#FFD4CB"/>
<ellipse cx="359.267" cy="86.6783" rx="4.1992" ry="3.81745" fill="#623D2C"/>
<ellipse cx="401.259" cy="86.6783" rx="4.1992" ry="3.81745" fill="#623D2C"/>
<ellipse cx="379.423" cy="101.948" rx="4.1992" ry="2.29047" fill="#FFBCAE"/>
<ellipse cx="379.423" cy="96.6037" rx="2.51952" ry="7.6349" fill="#FFC4B8"/>
<path d="M427.496 79.3472C414.894 79.3472 424.877 74.9217 408.173 74.9217C391.468 74.9217 377.927 66.3178 377.927 55.7043C377.927 45.0908 362.804 40.7257 387.169 38.6062C411.533 37.6509 431.697 68.3988 427.496 79.3472Z" fill="#4B332E"/>
<path d="M362.804 63.5955C351.742 74.3284 343.233 74.3284 333.873 92.7278C328.768 88.8946 327.066 75.0951 331.32 63.5955C339.829 49.7959 361.063 39.8296 370.462 39.8296C379.861 39.8296 362.804 52.1636 362.804 63.5955Z" fill="#4B332E"/>
<path d="M423.842 69.06C432.192 88.8691 400.463 56.8698 386.268 62.9649C375.201 62.9649 360.384 53.6977 360.384 46.9652C360.384 40.2328 375.201 38.5845 386.268 38.5845C397.336 38.5845 415.994 50.4418 423.842 69.06Z" fill="#4B332E"/>
<path d="M387.304 52.158C384.463 79.8068 392.021 80.5703 391.181 80.5703C375.696 80.5703 373.545 75.2259 364.263 67.4915C354.228 51.5577 356.027 47.4254 362.389 43.1912C368.752 38.9569 379.907 42.9715 387.304 52.158Z" fill="#4B332E"/>
<path d="M368.956 64.9163C369.753 70.2152 365.986 75.9898 369.753 78.5278C365.146 79.8073 359.816 78.8095 355.721 73.7244C352.549 66.0645 351.709 66.828 354.924 60.1129C356.748 46.2137 372.662 54.9453 368.956 64.9163Z" fill="#4B332E"/>
<path d="M398.418 60.9357C398.418 64.7076 393.725 65.4711 401.283 76.9235C390.366 77.6869 389.277 74.829 385.182 69.7438C381.088 64.6587 380.731 58.5646 384.386 56.1323C388.04 53.7 397.924 51.7283 398.418 60.9357Z" fill="#4B332E"/>
<path d="M366.3 47.0498C364.07 43.8691 367.576 40.9322 354.431 34.9685C363.186 28.9896 365.793 30.8678 372.253 33.1549C378.713 35.442 382.617 40.4065 380.973 44.2435C379.329 48.0805 372.16 54.5728 366.3 47.0498Z" fill="#4B332E"/>
<path d="M374.814 36.0192C378.165 33.796 381.61 36.7923 387.331 24.4912C394.445 32.0592 392.547 34.5431 390.442 40.5475C388.337 46.552 383.132 50.4059 378.816 49.1554C374.5 47.9049 366.923 41.8086 374.814 36.0192Z" fill="#4B332E"/>
<path d="M428.053 134.561C428.053 134.561 437.336 135.759 444.075 136.281C451.781 136.878 456.306 148.903 456.306 148.903L468.126 195.37L431.221 196.721L428.053 134.561Z" fill="#A45656"/>
<path d="M308.489 150.5C308.489 150.5 316.547 135.093 325.06 134.267C333.573 133.441 337.764 133.788 337.764 133.788L339.195 196.669L295.598 193.061L308.489 150.5Z" fill="#A45656"/>
</g>
<ellipse cx="635" cy="124" rx="125.739" ry="124" fill="url(#paint2_linear_234_516)"/>
<mask id="mask3_234_516" style="mask-type:alpha" maskUnits="userSpaceOnUse" x="509" y="0" width="252" height="248">
<ellipse cx="635" cy="124" rx="125.739" ry="124" fill="url(#paint3_linear_234_516)"/>
</mask>
<g mask="url(#mask3_234_516)">
<path d="M585.565 61.8044C593.419 52.471 599.757 46.9583 612.802 43.3384C620.429 41.222 633.269 41.3878 633.269 41.3878L629.805 135.148L575.331 135.668C575.331 135.668 573.97 115.725 575.331 103.028C577.086 86.658 574.21 75.2987 585.565 61.8044Z" fill="#4F3F3B"/>
<path d="M682.86 61.5607C675.007 52.1966 668.668 46.6656 655.623 43.0338C647.997 40.9104 635.157 41.0768 635.157 41.0768L638.62 135.146C638.62 135.146 689.759 136.19 693.094 135.668C696.429 135.146 694.455 115.659 693.094 102.92C691.339 86.4964 694.215 75.0996 682.86 61.5607Z" fill="#7E5649"/>
<path d="M584.59 61.8718C592.444 52.5076 598.782 46.9767 611.827 43.3449C619.454 41.2214 632.294 41.3878 632.294 41.3878L628.83 135.457C628.83 135.457 577.692 136.501 574.356 135.979C571.021 135.457 572.996 115.97 574.356 103.231C576.111 86.8074 573.235 75.4106 584.59 61.8718Z" fill="#7E5649"/>
<path d="M571.752 181.874L591.118 183.329V187.696L571.752 184.057V181.874Z" fill="#8772B6"/>
<path d="M698.707 183.329L681.493 184.785V189.151L700.142 184.785L698.707 183.329Z" fill="#8772B6"/>
<path d="M682.216 143.302L686.519 144.757C686.519 144.757 697.733 175.893 698.712 196.428C699.687 216.867 698.712 249.555 698.712 249.555L677.912 248.099C677.912 248.099 681.141 222.646 682.216 203.706C683.473 181.545 682.216 143.302 682.216 143.302Z" fill="#FFD4CB"/>
<path d="M590.115 143.302L585.812 144.757C585.812 144.757 574.598 175.893 573.619 196.428C572.644 216.867 573.619 249.555 573.619 249.555L594.419 248.099C594.419 248.099 591.19 222.646 590.115 203.706C588.858 181.545 590.115 143.302 590.115 143.302Z" fill="#FFD4CB"/>
<path d="M601.165 138.157C601.165 138.157 610.338 137.725 616.222 137.48C625.182 137.106 639.174 136.752 639.174 136.752C639.174 136.752 650.985 137.029 658.54 137.48C665.654 137.904 676.703 138.78 676.703 138.78C676.703 138.78 684.86 172.649 685.074 194.616C685.281 215.94 678.249 248.822 678.249 248.822L590.286 249.555C590.286 249.555 584.567 216.038 586.495 194.616C588.56 171.668 601.165 138.157 601.165 138.157Z" fill="#A18CD1"/>
<ellipse cx="632.72" cy="142.574" rx="12.1932" ry="5.09432" fill="#8772B6"/>
<path d="M585.427 144.848C590.746 140.836 601.164 138.158 601.164 138.158L593.27 165.862L589.684 184.056H571.753C571.753 184.056 571.131 179.113 571.753 176.051C572.436 172.688 574.748 152.903 585.427 144.848Z" fill="#A18CD1"/>
<path d="M676.703 138.78L677.907 166.589L681.493 184.783H700.142C700.142 184.783 697.633 153.249 693.856 148.893C690.079 144.536 676.703 138.78 676.703 138.78Z" fill="#A18CD1"/>
<path d="M626.266 128.746H640.611L641.328 146.212C641.328 146.212 639.22 147.362 637.742 147.667C636.095 148.007 635.119 147.667 633.438 147.667C631.757 147.667 630.795 147.933 629.135 147.667C627.385 147.387 624.831 146.212 624.831 146.212L626.266 128.746Z" fill="#FFCABF"/>
<path d="M619.42 140.335C619.42 140.335 620.356 143.475 620.934 144.717C622.668 148.444 626.382 146.911 630.019 147.346C632.666 147.663 634.194 147.739 636.833 147.346C639.251 146.986 640.732 146.907 642.89 145.593C643.833 145.019 644.533 144.838 645.161 143.841C645.712 142.966 647.38 142.145 647.393 141.063" stroke="#A18CD1" stroke-width="7"/>
<ellipse cx="633.441" cy="92.3605" rx="40.166" ry="40.7546" fill="#FFD4CB"/>
<ellipse cx="616.939" cy="88.7184" rx="3.58624" ry="3.6388" fill="#4E3737"/>
<ellipse cx="652.802" cy="88.7184" rx="3.58624" ry="3.6388" fill="#4E3737"/>
<ellipse cx="634.152" cy="103.275" rx="3.58624" ry="2.18328" fill="#FFBCAE"/>
<ellipse cx="634.153" cy="98.1795" rx="2.15175" ry="7.2776" fill="#FFC4B8"/>
<path d="M620.931 47.0498C618.701 43.8691 622.207 40.9322 609.061 34.9685C617.817 28.9896 620.424 30.8678 626.884 33.1549C633.344 35.442 637.248 40.4065 635.604 44.2435C633.96 48.0805 626.791 54.5728 620.931 47.0498Z" fill="#7E5649"/>
<path d="M629.445 36.0192C632.796 33.796 636.241 36.7923 641.962 24.4912C649.076 32.0592 647.178 34.5431 645.073 40.5475C642.967 46.552 637.762 50.4059 633.447 49.1554C629.131 47.905 621.554 41.8087 629.445 36.0192Z" fill="#7E5649"/>
<path d="M682.198 68.8212C677.301 57.9515 672.834 52.4033 664.211 46.1996C653.922 38.7977 634.469 38.5845 634.469 38.5845C634.469 38.5845 630.352 57.077 634.469 66.8054C637.36 73.6353 639.878 78.8805 646.046 80.2439C652.606 81.6944 659.235 77.6358 664.211 83.1556C671.06 90.7535 676.321 97.3949 676.321 110.033C676.321 116.921 684.336 125.711 684.336 125.711C684.336 125.711 687.944 112.122 688.254 103.089C688.722 89.3931 687.573 80.7484 682.198 68.8212Z" fill="#A56D5B"/>
<path d="M587.062 66.3003C592.535 55.7022 597.292 50.3956 606.236 44.652C616.906 37.7989 636.343 38.6042 636.343 38.6042C636.343 38.6042 639.465 57.2863 634.832 66.7855C631.579 73.4545 628.784 78.5606 622.552 79.5993C615.923 80.7044 609.521 76.3045 604.257 81.5561C597.01 88.7848 595.075 97.9995 594.398 110.62C594.029 117.498 596.129 129.445 596.129 129.445C596.129 129.445 581.537 115.075 580.392 106.108C578.503 91.3273 581.057 77.9295 587.062 66.3003Z" fill="#A56D5B"/>
</g>
<ellipse cx="889.63" cy="124" rx="125.739" ry="124" fill="url(#paint4_linear_234_516)"/>
<mask id="mask4_234_516" style="mask-type:alpha" maskUnits="userSpaceOnUse" x="763" y="0" width="253" height="248">
<ellipse cx="889.63" cy="124" rx="125.739" ry="124" fill="#FFF2BF"/>
</mask>
<g mask="url(#mask4_234_516)">
<rect x="852.205" y="112.738" width="78.8973" height="36.388" fill="#D5AB62"/>
<path d="M840.196 69.3522C848.049 56.5689 854.388 49.0184 867.433 44.0606C875.059 41.1618 887.899 41.3889 887.899 41.3889L884.436 169.806L829.962 170.519C829.962 170.519 828.601 143.204 829.962 125.813C831.717 103.393 828.841 87.8346 840.196 69.3522Z" fill="#4F3F3B"/>
<path d="M937.471 65.5039C929.621 54.3374 923.285 47.7419 910.246 43.4111C902.622 40.8789 889.788 41.0774 889.788 41.0774L893.25 153.253L947.7 153.875C947.7 153.875 949.06 130.015 947.7 114.824C945.946 95.239 948.821 81.6487 937.471 65.5039Z" fill="#4F3F3B"/>
<path d="M826.383 181.874L845.749 183.329V187.696L826.383 184.057V181.874Z" fill="#887979"/>
<path d="M953.338 183.329L936.124 184.785V189.151L954.772 184.785L953.338 183.329Z" fill="#887979"/>
<path d="M936.846 143.302L941.15 144.757C941.15 144.757 952.364 175.893 953.343 196.428C954.318 216.867 953.343 249.555 953.343 249.555L932.543 248.099C932.543 248.099 935.772 222.646 936.846 203.706C938.103 181.545 936.846 143.302 936.846 143.302Z" fill="#FFD4CB"/>
<path d="M844.746 143.302L840.443 144.757C840.443 144.757 829.229 175.893 828.25 196.428C827.275 216.867 828.25 249.555 828.25 249.555L849.05 248.099C849.05 248.099 845.821 222.646 844.746 203.706C843.489 181.545 844.746 143.302 844.746 143.302Z" fill="#FFD4CB"/>
<path d="M855.796 138.157C855.796 138.157 864.969 137.725 870.853 137.48C879.813 137.106 893.805 136.752 893.805 136.752C893.805 136.752 905.616 137.029 913.171 137.48C920.285 137.904 931.334 138.78 931.334 138.78C931.334 138.78 939.491 172.649 939.704 194.616C939.911 215.94 932.88 248.822 932.88 248.822L844.917 249.555C844.917 249.555 839.198 216.038 841.125 194.616C843.19 171.668 855.796 138.157 855.796 138.157Z" fill="#9D9090"/>
<ellipse cx="887.35" cy="142.574" rx="12.1932" ry="5.09432" fill="#837777"/>
<path d="M840.058 144.848C845.376 140.836 855.795 138.158 855.795 138.158L847.901 165.862L844.315 184.056H826.384C826.384 184.056 825.762 179.113 826.384 176.051C827.067 172.688 829.379 152.903 840.058 144.848Z" fill="#9D9090"/>
<path d="M931.334 138.78L932.538 166.589L936.124 184.783H954.772C954.772 184.783 952.264 153.249 948.487 148.893C944.71 144.536 931.334 138.78 931.334 138.78Z" fill="#9D9090"/>
<path d="M880.896 128.746H895.241L895.959 146.212C895.959 146.212 893.851 147.362 892.372 147.667C890.725 148.007 889.75 147.667 888.069 147.667C886.388 147.667 885.425 147.933 883.765 147.667C882.016 147.387 879.462 146.212 879.462 146.212L880.896 128.746Z" fill="#FFCABF"/>
<path d="M874.051 140.335C874.051 140.335 874.987 143.475 875.565 144.717C877.299 148.444 881.012 146.911 884.65 147.346C887.297 147.663 888.825 147.739 891.464 147.346C893.882 146.986 895.363 146.907 897.521 145.593C898.464 145.019 899.164 144.838 899.792 143.841C900.343 142.966 902.011 142.145 902.023 141.063" stroke="#9D9090" stroke-width="7"/>
<ellipse cx="888.072" cy="92.3605" rx="40.166" ry="40.7546" fill="#FFD4CB"/>
<ellipse cx="871.57" cy="88.7184" rx="3.58624" ry="3.6388" fill="#4E3737"/>
<ellipse cx="907.433" cy="88.7184" rx="3.58624" ry="3.6388" fill="#4E3737"/>
<ellipse cx="888.783" cy="103.275" rx="3.58624" ry="2.18328" fill="#FFBCAE"/>
<ellipse cx="888.784" cy="98.1795" rx="2.15175" ry="7.2776" fill="#FFC4B8"/>
<path d="M899.493 83.1699H918.046C918.098 83.1699 918.244 83.19 918.482 83.4587C918.724 83.7315 918.98 84.1769 919.215 84.7984C919.683 86.0341 919.986 87.7398 920.049 89.4836C920.112 91.2328 919.929 92.914 919.503 94.1166C919.057 95.3749 918.511 95.7251 918.046 95.7251H918.002H917.958H917.914H917.87H917.826H917.782H917.738H917.695H917.651H917.607H917.564H917.52H917.477H917.434H917.391H917.347H917.304H917.261H917.218H917.175H917.133H917.09H917.047H917.004H916.962H916.919H916.877H916.834H916.792H916.749H916.707H916.665H916.623H916.581H916.539H916.497H916.455H916.413H916.371H916.33H916.288H916.246H916.205H916.163H916.122H916.08H916.039H915.998H915.957H915.915H915.874H915.833H915.792H915.751H915.71H915.67H915.629H915.588H915.547H915.507H915.466H915.426H915.385H915.345H915.304H915.264H915.224H915.184H915.144H915.103H915.063H915.023H914.983H914.944H914.904H914.864H914.824H914.785H914.745H914.705H914.666H914.626H914.587H914.547H914.508H914.469H914.43H914.39H914.351H914.312H914.273H914.234H914.195H914.156H914.117H914.078H914.04H914.001H913.962H913.924H913.885H913.846H913.808H913.769H913.731H913.693H913.654H913.616H913.578H913.54H913.501H913.463H913.425H913.387H913.349H913.311H913.273H913.236H913.198H913.16H913.122H913.085H913.047H913.009H912.972H912.934H912.897H912.859H912.822H912.784H912.747H912.71H912.673H912.635H912.598H912.561H912.524H912.487H912.45H912.413H912.376H912.339H912.302H912.265H912.229H912.192H912.155H912.118H912.082H912.045H912.008H911.972H911.935H911.899H911.862H911.826H911.79H911.753H911.717H911.681H911.644H911.608H911.572H911.536H911.5H911.464H911.428H911.392H911.356H911.32H911.284H911.248H911.212H911.176H911.14H911.105H911.069H911.033H910.997H910.962H910.926H910.89H910.855H910.819H910.784H910.748H910.713H910.677H910.642H910.607H910.571H910.536H910.501H910.465H910.43H910.395H910.36H910.325H910.289H910.254H910.219H910.184H910.149H910.114H910.079H910.044H910.009H909.974H909.939H909.905H909.87H909.835H909.8H909.765H909.73H909.696H909.661H909.626H909.592H909.557H909.522H909.488H909.453H909.419H909.384H909.35H909.315H909.281H909.246H909.212H909.177H909.143H909.108H909.074H909.04H909.005H908.971H908.937H908.902H908.868H908.834H908.8H908.765H908.731H908.697H908.663H908.629H908.594H908.56H908.526H908.492H908.458H908.424H908.39H908.356H908.322H908.288H908.254H908.22H908.186H908.152H908.118H908.084H908.05H908.016H907.982H907.948H907.915H907.881H907.847H907.813H907.779H907.745H907.711H907.678H907.644H907.61H907.576H907.543H907.509H907.475H907.441H907.408H907.374H907.34H907.306H907.273H907.239H907.205H907.172H907.138H907.104H907.071H907.037H907.003H906.97H906.936H906.902H906.869H906.835H906.802H906.768H906.734H906.701H906.667H906.634H906.6H906.566H906.533H906.499H906.466H906.432H906.399H906.365H906.331H906.298H906.264H906.231H906.197H906.164H906.13H906.096H906.063H906.029H905.996H905.962H905.929H905.895H905.862H905.828H905.794H905.761H905.727H905.694H905.66H905.627H905.593H905.559H905.526H905.492H905.459H905.425H905.391H905.358H905.324H905.291H905.257H905.223H905.19H905.156H905.123H905.089H905.055H905.022H904.988H904.954H904.921H904.887H904.853H904.82H904.786H904.752H904.718H904.685H904.651H904.617H904.583H904.55H904.516H904.482H904.448H904.415H904.381H904.347H904.313H904.279H904.245H904.212H904.178H904.144H904.11H904.076H904.042H904.008H903.974H903.94H903.906H903.872H903.838H903.804H903.77H903.736H903.702H903.668H903.634H903.6H903.566H903.532H903.498H903.464H903.429H903.395H903.361H903.327H903.293H903.258H903.224H903.19H903.155H903.121H903.087H903.052H903.018H902.984H902.949H902.915H902.88H902.846H902.811H902.777H902.742H902.708H902.673H902.639H902.604H902.57H902.535H902.5H902.466H902.431H902.396H902.361H902.327H902.292H902.257H902.222H902.187H902.152H902.118H902.083H902.048H902.013H901.978H901.943H901.908H901.873H901.837H901.802H901.767H901.732H901.697H901.662H901.626H901.591H901.556H901.52H901.485H901.45H901.414H901.379H901.343H901.308H901.272H901.237H901.201H901.166H901.13H901.094H901.059H901.023H900.987H900.951H900.916H900.88H900.844H900.808H900.772H900.736H900.7H900.664H900.628H900.592H900.556H900.519H900.483H900.447H900.411H900.374H900.338H900.302H900.265H900.229H900.193H900.156H900.12H900.083H900.046H900.01H899.973H899.936H899.9H899.863H899.826H899.789H899.752H899.715H899.678H899.641H899.604H899.567H899.53H899.493C898.382 95.7251 897.577 95.1253 897.014 94.0025C896.432 92.8417 896.173 91.2094 896.255 89.4952C896.336 87.787 896.75 86.1198 897.393 84.9148C898.054 83.6754 898.806 83.1699 899.493 83.1699Z" stroke="#3A3A3A" stroke-width="2"/>
<path d="M862.199 83.1699H880.752C880.804 83.1699 880.95 83.19 881.188 83.4587C881.43 83.7315 881.686 84.1769 881.921 84.7984C882.389 86.0341 882.692 87.7398 882.755 89.4836C882.818 91.2328 882.636 92.914 882.209 94.1166C881.763 95.3749 881.217 95.7251 880.752 95.7251H880.708H880.664H880.62H880.576H880.532H880.488H880.444H880.401H880.357H880.313H880.27H880.227H880.183H880.14H880.097H880.053H880.01H879.967H879.924H879.881H879.839H879.796H879.753H879.71H879.668H879.625H879.583H879.54H879.498H879.456H879.413H879.371H879.329H879.287H879.245H879.203H879.161H879.119H879.077H879.036H878.994H878.952H878.911H878.869H878.828H878.786H878.745H878.704H878.663H878.621H878.58H878.539H878.498H878.457H878.416H878.376H878.335H878.294H878.253H878.213H878.172H878.132H878.091H878.051H878.011H877.97H877.93H877.89H877.85H877.81H877.769H877.729H877.69H877.65H877.61H877.57H877.53H877.491H877.451H877.411H877.372H877.332H877.293H877.253H877.214H877.175H877.136H877.096H877.057H877.018H876.979H876.94H876.901H876.862H876.823H876.784H876.746H876.707H876.668H876.63H876.591H876.553H876.514H876.476H876.437H876.399H876.36H876.322H876.284H876.246H876.208H876.169H876.131H876.093H876.055H876.017H875.98H875.942H875.904H875.866H875.828H875.791H875.753H875.715H875.678H875.64H875.603H875.565H875.528H875.491H875.453H875.416H875.379H875.341H875.304H875.267H875.23H875.193H875.156H875.119H875.082H875.045H875.008H874.971H874.935H874.898H874.861H874.824H874.788H874.751H874.714H874.678H874.641H874.605H874.568H874.532H874.496H874.459H874.423H874.387H874.35H874.314H874.278H874.242H874.206H874.17H874.134H874.098H874.062H874.026H873.99H873.954H873.918H873.882H873.846H873.811H873.775H873.739H873.703H873.668H873.632H873.597H873.561H873.525H873.49H873.454H873.419H873.384H873.348H873.313H873.277H873.242H873.207H873.171H873.136H873.101H873.066H873.031H872.996H872.96H872.925H872.89H872.855H872.82H872.785H872.75H872.715H872.68H872.645H872.611H872.576H872.541H872.506H872.471H872.437H872.402H872.367H872.332H872.298H872.263H872.228H872.194H872.159H872.125H872.09H872.056H872.021H871.987H871.952H871.918H871.883H871.849H871.814H871.78H871.746H871.711H871.677H871.643H871.608H871.574H871.54H871.506H871.471H871.437H871.403H871.369H871.335H871.301H871.266H871.232H871.198H871.164H871.13H871.096H871.062H871.028H870.994H870.96H870.926H870.892H870.858H870.824H870.79H870.756H870.722H870.688H870.654H870.621H870.587H870.553H870.519H870.485H870.451H870.418H870.384H870.35H870.316H870.282H870.249H870.215H870.181H870.147H870.114H870.08H870.046H870.012H869.979H869.945H869.911H869.878H869.844H869.81H869.777H869.743H869.709H869.676H869.642H869.609H869.575H869.541H869.508H869.474H869.44H869.407H869.373H869.34H869.306H869.273H869.239H869.205H869.172H869.138H869.105H869.071H869.037H869.004H868.97H868.937H868.903H868.87H868.836H868.803H868.769H868.735H868.702H868.668H868.635H868.601H868.568H868.534H868.5H868.467H868.433H868.4H868.366H868.333H868.299H868.265H868.232H868.198H868.165H868.131H868.098H868.064H868.03H867.997H867.963H867.929H867.896H867.862H867.829H867.795H867.761H867.728H867.694H867.66H867.627H867.593H867.559H867.526H867.492H867.458H867.424H867.391H867.357H867.323H867.289H867.256H867.222H867.188H867.154H867.121H867.087H867.053H867.019H866.985H866.951H866.918H866.884H866.85H866.816H866.782H866.748H866.714H866.68H866.646H866.612H866.578H866.544H866.51H866.476H866.442H866.408H866.374H866.34H866.306H866.272H866.238H866.204H866.17H866.135H866.101H866.067H866.033H865.999H865.964H865.93H865.896H865.862H865.827H865.793H865.759H865.724H865.69H865.655H865.621H865.586H865.552H865.518H865.483H865.449H865.414H865.379H865.345H865.31H865.276H865.241H865.206H865.172H865.137H865.102H865.067H865.033H864.998H864.963H864.928H864.893H864.859H864.824H864.789H864.754H864.719H864.684H864.649H864.614H864.579H864.544H864.508H864.473H864.438H864.403H864.368H864.332H864.297H864.262H864.226H864.191H864.156H864.12H864.085H864.049H864.014H863.978H863.943H863.907H863.872H863.836H863.8H863.765H863.729H863.693H863.657H863.622H863.586H863.55H863.514H863.478H863.442H863.406H863.37H863.334H863.298H863.262H863.226H863.189H863.153H863.117H863.081H863.044H863.008H862.971H862.935H862.899H862.862H862.826H862.789H862.752H862.716H862.679H862.642H862.606H862.569H862.532H862.495H862.458H862.421H862.384H862.347H862.31H862.273H862.236H862.199C861.088 95.7251 860.283 95.1253 859.72 94.0025C859.138 92.8417 858.879 91.2094 858.961 89.4952C859.043 87.787 859.456 86.1198 860.099 84.9148C860.76 83.6754 861.512 83.1699 862.199 83.1699Z" stroke="#3A3A3A" stroke-width="2"/>
<path d="M883.05 88.7197H895.96" stroke="#2B2B2B" stroke-width="5"/>
<path d="M875.561 47.0498C873.331 43.8691 876.836 40.9322 863.691 34.9685C872.446 28.9896 875.054 30.8678 881.514 33.1549C887.973 35.442 891.877 40.4065 890.234 44.2435C888.59 48.0805 881.421 54.5728 875.561 47.0498Z" fill="#4F3F3B"/>
<path d="M884.074 36.0192C887.426 33.796 890.871 36.7923 896.592 24.4912C903.706 32.0592 901.808 34.5431 899.703 40.5475C897.597 46.552 892.392 50.4059 888.077 49.1554C883.761 47.905 876.183 41.8087 884.074 36.0192Z" fill="#4F3F3B"/>
<path d="M936.828 68.8212C931.931 57.9515 927.464 52.4033 918.841 46.1996C908.552 38.7977 889.099 38.5845 889.099 38.5845C889.099 38.5845 884.981 57.077 889.099 66.8054C891.99 73.6353 894.508 78.8805 900.675 80.2439C907.236 81.6944 913.865 77.6358 918.841 83.1556C925.69 90.7535 930.951 97.3949 930.951 110.033C930.951 116.921 938.965 125.711 938.965 125.711C938.965 125.711 942.574 112.122 942.883 103.089C943.352 89.3931 942.202 80.7484 936.828 68.8212Z" fill="#5A4646"/>
<path d="M841.692 66.3003C847.165 55.7022 851.922 50.3956 860.865 44.652C871.536 37.7989 890.973 38.6042 890.973 38.6042C890.973 38.6042 894.095 57.2863 889.462 66.7855C886.209 73.4545 883.414 78.5606 877.182 79.5993C870.553 80.7044 864.151 76.3045 858.886 81.5561C851.64 88.7848 849.704 97.9995 849.028 110.62C848.659 117.498 850.759 129.445 850.759 129.445C850.759 129.445 836.167 115.075 835.022 106.108C833.133 91.3273 835.687 77.9295 841.692 66.3003Z" fill="#5A4646"/>
</g>
<ellipse cx="1144.26" cy="124" rx="125.739" ry="124" fill="#FFF2BF"/>
<ellipse cx="1144.26" cy="124" rx="125.739" ry="124" fill="url(#paint5_linear_234_516)"/>
<mask id="mask5_234_516" style="mask-type:alpha" maskUnits="userSpaceOnUse" x="1018" y="0" width="252" height="248">
<ellipse cx="1144.26" cy="124" rx="125.739" ry="124" fill="#FFF2BF"/>
</mask>
<g mask="url(#mask5_234_516)">
<path d="M1058.27 188.566H1089.97V196.346L1056.6 190.122L1058.27 188.566Z" fill="#563A3A"/>
<path d="M1201.7 195.412L1228.56 192.3L1231.92 195.412L1201.7 200.079V195.412Z" fill="#563A3A"/>
<path d="M1193.82 136.389C1193.82 136.389 1187.97 132.574 1205.54 142.493C1223.11 152.411 1218.62 175.133 1219.76 196.661C1220.9 218.088 1219.76 252.355 1219.76 252.355L1195.5 250.829C1195.5 250.829 1197.59 224.146 1198.85 204.29C1200.31 181.059 1193.82 136.389 1193.82 136.389Z" fill="#FFD4CB"/>
<path d="M1105.39 134.831C1105.39 134.831 1099.74 131.027 1087.6 140.919C1075.46 150.81 1074.61 173.472 1073.47 194.943C1072.34 216.312 1073.47 250.488 1073.47 250.488L1097.58 248.967C1097.58 248.967 1093.84 222.355 1092.59 202.552C1091.13 179.382 1105.39 134.831 1105.39 134.831Z" fill="#FFD4CB"/>
<path d="M1100.64 133.771C1100.64 133.771 1116.39 133.266 1123.26 133.008C1133.72 132.617 1150.06 132.246 1150.06 132.246C1150.06 132.246 1163.86 132.536 1172.68 133.008C1180.99 133.453 1191.95 134.534 1191.95 134.534C1191.95 134.534 1199.24 169.874 1199.49 192.9C1199.73 215.253 1195.7 249.721 1195.7 249.721L1092.97 250.489C1092.97 250.489 1086.29 215.355 1088.54 192.9C1090.95 168.845 1100.64 133.771 1100.64 133.771Z" fill="#D1D1D1"/>
<ellipse cx="1142.37" cy="138.625" rx="14.3208" ry="5.44541" fill="#563A3A"/>
<path d="M1134.47 124.466H1151.44L1152.29 142.703C1152.29 142.703 1149.79 143.905 1148.04 144.223C1146.1 144.578 1144.94 144.223 1142.95 144.223C1140.96 144.223 1139.83 144.501 1137.86 144.223C1135.79 143.931 1132.77 142.703 1132.77 142.703L1134.47 124.466Z" fill="#FFCABF"/>
<path d="M1127.11 136.913C1127.11 136.913 1128.2 140.135 1128.88 141.409C1130.91 145.234 1135.25 143.66 1139.51 144.107C1142.61 144.432 1144.39 144.51 1147.48 144.107C1150.31 143.738 1152.05 143.657 1154.57 142.309C1155.67 141.719 1156.49 141.533 1157.23 140.51C1157.87 139.613 1159.82 138.77 1159.84 137.66" stroke="#D1D1D1" stroke-width="3"/>
<ellipse cx="1143.94" cy="86.0373" rx="47.0539" ry="42.7853" fill="#FFD4CB"/>
<ellipse cx="1123.16" cy="86.6778" rx="4.1992" ry="3.81745" fill="#C4C4C4"/>
<ellipse cx="1165.15" cy="86.6778" rx="4.1992" ry="3.81745" fill="#C4C4C4"/>
<ellipse cx="1143.31" cy="101.948" rx="4.1992" ry="2.29047" fill="#FFBCAE"/>
<ellipse cx="1143.31" cy="96.6032" rx="2.51952" ry="7.6349" fill="#FFC4B8"/>
<path d="M1191.94 134.561C1191.94 134.561 1201.23 135.758 1207.97 136.281C1215.67 136.878 1220.2 148.903 1220.2 148.903L1232.02 195.369C1232.02 195.369 1202.17 200.546 1195.11 196.721C1188.05 192.895 1191.94 134.561 1191.94 134.561Z" fill="#6E4A4A"/>
<path d="M1102.23 133.718C1102.23 133.718 1092.87 134.045 1086.11 133.936C1078.38 133.812 1072.73 145.362 1072.73 145.362L1056.53 190.519C1056.53 190.519 1085.75 198.456 1093.14 195.306C1100.53 192.155 1102.23 133.718 1102.23 133.718Z" fill="#6E4A4A"/>
<path d="M1135.48 42.2929C1135.44 38.5212 1140.13 37.7132 1132.46 26.3332C1143.37 25.466 1144.48 28.3135 1148.63 33.3595C1152.77 38.4055 1153.19 44.4959 1149.56 46.9628C1145.93 49.4297 1136.06 51.4953 1135.48 42.2929Z" fill="#4B332E"/>
<path d="M1182.17 50.6259C1185.79 51.8121 1185.05 56.4562 1198.42 52.9645C1195.72 63.4508 1192.63 63.5734 1186.46 65.817C1180.29 68.0606 1174.33 66.4787 1173.14 62.2838C1171.96 58.0889 1173.17 48.1932 1182.17 50.6259Z" fill="#4B332E"/>
<path d="M1177.61 42.0246C1181.29 43.0121 1180.81 47.6895 1193.97 43.4757C1191.85 54.093 1188.78 54.3833 1182.74 56.9591C1176.71 59.5349 1170.66 58.2798 1169.25 54.1557C1167.83 50.0317 1168.49 40.0849 1177.61 42.0246Z" fill="#4B332E"/>
<path d="M1159.99 37.4452C1163.78 37.8535 1164.04 42.5483 1176.37 36.3594C1175.96 47.1725 1172.97 47.9328 1167.41 51.4068C1161.85 54.8808 1155.69 54.5716 1153.64 50.7162C1151.59 46.8608 1150.67 36.9334 1159.99 37.4452Z" fill="#4B332E"/>
<path d="M1105.63 53.8177C1102.01 54.9826 1102.72 59.631 1089.37 56.0607C1092.01 66.5627 1095.09 66.7034 1101.25 68.9833C1107.41 71.2631 1113.38 69.7164 1114.59 65.5285C1115.8 61.3407 1114.65 51.4381 1105.63 53.8177Z" fill="#4B332E"/>
<path d="M1114.76 43.2381C1111.13 44.403 1111.85 49.0514 1098.5 45.4811C1101.13 55.9831 1104.22 56.1238 1110.38 58.4037C1116.53 60.6836 1122.51 59.1368 1123.72 54.949C1124.93 50.7611 1123.77 40.8585 1114.76 43.2381Z" fill="#2C201A"/>
<path d="M1125.46 38.2591C1121.84 39.424 1122.55 44.0724 1109.2 40.5021C1111.84 51.0041 1114.92 51.1448 1121.08 53.4247C1127.23 55.7046 1133.21 54.1578 1134.42 49.97C1135.63 45.7821 1134.47 35.8795 1125.46 38.2591Z" fill="#2C201A"/>
<path d="M1133.65 47.0498C1131.42 43.8691 1134.93 40.9322 1121.78 34.9685C1130.54 28.9896 1133.15 30.8678 1139.61 33.1549C1146.07 35.442 1149.97 40.4065 1148.33 44.2435C1146.68 48.0805 1139.51 54.5728 1133.65 47.0498Z" fill="#4B332E"/>
<path d="M1142.17 36.0192C1145.52 33.796 1148.96 36.7923 1154.68 24.4912C1161.8 32.0592 1159.9 34.5431 1157.79 40.5475C1155.69 46.552 1150.48 50.4059 1146.17 49.1554C1141.85 47.905 1134.28 41.8087 1142.17 36.0192Z" fill="#4B332E"/>
<path d="M1191.7 79.3472C1179.1 79.3472 1189.08 74.9217 1172.38 74.9217C1155.67 74.9217 1142.13 66.3178 1142.13 55.7043C1142.13 45.0908 1127.01 40.7257 1151.37 38.6062C1175.74 37.6509 1195.9 68.3988 1191.7 79.3472Z" fill="#4B332E"/>
<path d="M1127.01 63.5955C1115.95 74.3284 1107.44 74.3284 1098.08 92.7278C1092.97 88.8946 1091.27 75.0951 1095.53 63.5955C1104.03 49.7959 1125.27 39.8296 1134.67 39.8296C1144.07 39.8296 1127.01 52.1636 1127.01 63.5955Z" fill="#4B332E"/>
<path d="M1188.05 69.06C1196.4 88.8691 1164.67 56.8698 1150.47 62.9649C1139.41 62.9649 1124.59 53.6977 1124.59 46.9652C1124.59 40.2328 1139.41 38.5845 1150.47 38.5845C1161.54 38.5845 1180.2 50.4418 1188.05 69.06Z" fill="#4B332E"/>
<path d="M1151.51 52.158C1148.67 79.8068 1156.23 80.5703 1155.39 80.5703C1139.9 80.5703 1137.75 75.2259 1128.47 67.4915C1118.43 51.5577 1120.23 47.4254 1126.59 43.1912C1132.96 38.9569 1144.11 42.9715 1151.51 52.158Z" fill="#4B332E"/>
<path d="M1133.16 64.9075C1133.96 70.2064 1130.19 75.981 1133.96 78.519C1129.35 79.7985 1124.02 78.8007 1119.92 73.7156C1116.75 66.0557 1115.91 66.8192 1119.13 60.1041C1120.95 46.2049 1136.87 54.9366 1133.16 64.9075Z" fill="#4B332E"/>
<path d="M1162.62 60.9362C1162.62 64.7081 1157.93 65.4716 1165.49 76.9239C1154.57 77.6874 1153.48 74.8294 1149.39 69.7443C1145.29 64.6592 1144.93 58.5651 1148.59 56.1328C1152.24 53.7005 1162.13 51.7288 1162.62 60.9362Z" fill="#4B332E"/>
<path d="M1173.99 52.4843C1177.61 53.6705 1176.86 58.3146 1190.24 54.8229C1187.54 65.3092 1184.45 65.4318 1178.28 67.6754C1172.11 69.919 1166.15 68.3371 1164.96 64.1422C1163.77 59.9473 1164.99 50.0516 1173.99 52.4843Z" fill="#4B332E"/>
<path d="M1167.98 43.3439C1171.66 44.3314 1171.18 49.0089 1184.33 44.7951C1182.22 55.4124 1179.15 55.7026 1173.11 58.2784C1167.07 60.8542 1161.03 59.5991 1159.61 55.4751C1158.2 51.351 1158.86 41.4042 1167.98 43.3439Z" fill="#4B332E"/>
<path d="M1156.84 37.4452C1160.63 37.8535 1160.89 42.5483 1173.23 36.3594C1172.81 47.1725 1169.82 47.9328 1164.26 51.4068C1158.71 54.8808 1152.54 54.5716 1150.49 50.7162C1148.44 46.8608 1147.53 36.9334 1156.84 37.4452Z" fill="#4B332E"/>
<path d="M1108.47 54.7425C1104.84 55.9074 1105.55 60.5558 1092.2 56.9855C1094.84 67.4875 1097.92 67.6282 1104.08 69.9081C1110.24 72.188 1116.21 70.6412 1117.42 66.4534C1118.63 62.2655 1117.48 52.3629 1108.47 54.7425Z" fill="#4B332E"/>
<path d="M1114.13 43.8519C1110.5 45.0168 1111.22 49.6652 1097.87 46.0949C1100.5 56.5969 1103.59 56.7376 1109.75 59.0175C1115.9 61.2973 1121.88 59.7506 1123.09 55.5627C1124.3 51.3749 1123.14 41.4722 1114.13 43.8519Z" fill="#4B332E"/>
<path d="M1123.89 39.1932C1120.26 40.3581 1120.98 45.0065 1107.62 41.4362C1110.26 51.9382 1113.35 52.0789 1119.5 54.3588C1125.66 56.6386 1131.63 55.0919 1132.84 50.904C1134.06 46.7162 1132.9 36.8136 1123.89 39.1932Z" fill="#4B332E"/>
<path d="M1130.51 47.0498C1128.28 43.8691 1131.78 40.9322 1118.64 34.9685C1127.39 28.9896 1130 30.8678 1136.46 33.1549C1142.92 35.442 1146.82 40.4065 1145.18 44.2435C1143.53 48.0805 1136.37 54.5728 1130.51 47.0498Z" fill="#4B332E"/>
</g>
<defs>
<linearGradient id="paint0_linear_234_516" x1="42.5434" y1="-35.2059" x2="294.866" y2="10.9826" gradientUnits="userSpaceOnUse">
<stop stop-color="#6A11CB"/>
<stop offset="1" stop-color="#2575FC"/>
</linearGradient>
<linearGradient id="paint1_linear_234_516" x1="297.174" y1="-35.2059" x2="549.497" y2="10.9828" gradientUnits="userSpaceOnUse">
<stop stop-color="#6A11CB"/>
<stop offset="1" stop-color="#2575FC"/>
</linearGradient>
<linearGradient id="paint2_linear_234_516" x1="551.804" y1="-35.2059" x2="804.127" y2="10.9828" gradientUnits="userSpaceOnUse">
<stop stop-color="#6A11CB"/>
<stop offset="1" stop-color="#2575FC"/>
</linearGradient>
<linearGradient id="paint3_linear_234_516" x1="551.804" y1="-35.2059" x2="804.127" y2="10.9828" gradientUnits="userSpaceOnUse">
<stop stop-color="#6A11CB"/>
<stop offset="1" stop-color="#2575FC"/>
</linearGradient>
<linearGradient id="paint4_linear_234_516" x1="806.434" y1="-35.2059" x2="1058.76" y2="10.9828" gradientUnits="userSpaceOnUse">
<stop stop-color="#6A11CB"/>
<stop offset="1" stop-color="#2575FC"/>
</linearGradient>
<linearGradient id="paint5_linear_234_516" x1="1061.06" y1="-35.2059" x2="1313.39" y2="10.9828" gradientUnits="userSpaceOnUse">
<stop stop-color="#6A11CB"/>
<stop offset="1" stop-color="#2575FC"/>
</linearGradient>
</defs>
</svg>
